<svg width="16" height="16" viewBox="0 0 16 16" fill="none" xmlns="http://www.w3.org/2000/svg">
<path fill-rule="evenodd" clip-rule="evenodd" d="M13.2755 10.5511C13.4502 10.0603 13.1982 9.52024 12.7098 9.33889L9.76017 8.27486L8.18434 3.46653C8.11274 3.29767 7.984 3.1594 7.82068 3.07594L7.22806 2.88738C7.16631 2.87336 7.10153 2.88802 7.05183 2.92725C7.00213 2.96649 6.97285 3.02609 6.97215 3.08941L6.6085 7.11655L4.73635 6.42965L4.06291 4.86728C4.06291 4.86728 3.94169 4.50362 3.7666 4.49016L3.40295 4.47669C3.40295 4.47669 3.21439 4.50362 3.21439 4.66525V7.68224C3.21439 7.78999 3.26826 7.92467 3.5511 8.01895L12.0499 11.1302C12.2891 11.2177 12.5534 11.2057 12.7837 11.0968C13.014 10.988 13.1912 10.7914 13.2755 10.5511Z" fill="#022541"/>
</svg>
