<svg width="16" height="16" viewBox="0 0 16 16" fill="none" xmlns="http://www.w3.org/2000/svg">
<path fill-rule="evenodd" clip-rule="evenodd" d="M13.6191 6.15237C13.3956 5.68182 12.8355 5.47815 12.362 5.69523L9.52386 7.02856L5.00957 4.74284C4.83955 4.67406 4.65074 4.66732 4.47624 4.7238L3.92386 5.00951C3.87028 5.04326 3.83484 5.09943 3.82744 5.16231C3.82005 5.2252 3.84148 5.28806 3.88576 5.33332L6.47624 8.43808L4.66672 9.27618L3.08576 8.64761C3.08576 8.64761 2.74291 8.47618 2.60957 8.59046L2.34291 8.83808C2.34291 8.83808 2.22862 8.99046 2.34291 9.10475L4.47624 11.2381C4.55243 11.3143 4.68577 11.3714 4.95243 11.2381L13.162 7.42856C13.393 7.32123 13.5714 7.12582 13.6573 6.88601C13.7432 6.6462 13.7294 6.38197 13.6191 6.15237Z" fill="#022541"/>
</svg>
