<svg width="2" height="72" viewBox="0 0 2 72" fill="none" xmlns="http://www.w3.org/2000/svg">
<path opacity="0.2" d="M1 2C1.55228 2 2 1.55228 2 1C2 0.447715 1.55228 0 1 0C0.447715 0 0 0.447715 0 1C0 1.55228 0.447715 2 1 2Z" fill="#4F755B"/>
<path opacity="0.3" d="M1 12C1.55228 12 2 11.5523 2 11C2 10.4477 1.55228 10 1 10C0.447715 10 0 10.4477 0 11C0 11.5523 0.447715 12 1 12Z" fill="#4F755B"/>
<path opacity="0.4" d="M1 22C1.55228 22 2 21.5523 2 21C2 20.4477 1.55228 20 1 20C0.447715 20 0 20.4477 0 21C0 21.5523 0.447715 22 1 22Z" fill="#4F755B"/>
<path opacity="0.5" d="M1 32C1.55228 32 2 31.5523 2 31C2 30.4477 1.55228 30 1 30C0.447715 30 0 30.4477 0 31C0 31.5523 0.447715 32 1 32Z" fill="#4F755B"/>
<path opacity="0.6" d="M1 42C1.55228 42 2 41.5523 2 41C2 40.4477 1.55228 40 1 40C0.447715 40 0 40.4477 0 41C0 41.5523 0.447715 42 1 42Z" fill="#4F755B"/>
<path opacity="0.7" d="M1 52C1.55228 52 2 51.5523 2 51C2 50.4477 1.55228 50 1 50C0.447715 50 0 50.4477 0 51C0 51.5523 0.447715 52 1 52Z" fill="#4F755B"/>
<path opacity="0.8" d="M1 62C1.55228 62 2 61.5523 2 61C2 60.4477 1.55228 60 1 60C0.447715 60 0 60.4477 0 61C0 61.5523 0.447715 62 1 62Z" fill="#4F755B"/>
<path opacity="0.9" d="M1 72C1.55228 72 2 71.5523 2 71C2 70.4477 1.55228 70 1 70C0.447715 70 0 70.4477 0 71C0 71.5523 0.447715 72 1 72Z" fill="#4F755B"/>
</svg>
