<svg width="24" height="24" viewBox="0 0 24 24" fill="none" xmlns="http://www.w3.org/2000/svg">
<path fill-rule="evenodd" clip-rule="evenodd" d="M11.1371 17.2446C11.475 17.6153 11.48 18.2108 11.1429 18.5806C10.8082 18.9477 10.2696 18.9523 9.92715 18.5767L4.54035 12.668C4.20365 12.2987 4.19785 11.7063 4.54035 11.3306L9.92715 5.42198C10.2638 5.05266 10.8058 5.04836 11.1429 5.41808C11.4776 5.78524 11.4788 6.37927 11.1371 6.75401L7.21221 11.0591H18.855C19.3296 11.0591 19.7143 11.4765 19.7143 11.9993C19.7143 12.5186 19.3264 12.9395 18.855 12.9395H7.21221L11.1371 17.2446Z" fill="#022541"/>
<mask id="mask0_1519_3338" style="mask-type:luminance" maskUnits="userSpaceOnUse" x="4" y="5" width="16" height="14">
<path fill-rule="evenodd" clip-rule="evenodd" d="M11.1371 17.2446C11.475 17.6153 11.48 18.2108 11.1429 18.5806C10.8082 18.9477 10.2696 18.9523 9.92715 18.5767L4.54035 12.668C4.20365 12.2987 4.19785 11.7063 4.54035 11.3306L9.92715 5.42198C10.2638 5.05266 10.8058 5.04836 11.1429 5.41808C11.4776 5.78524 11.4788 6.37927 11.1371 6.75401L7.21221 11.0591H18.855C19.3296 11.0591 19.7143 11.4765 19.7143 11.9993C19.7143 12.5186 19.3264 12.9395 18.855 12.9395H7.21221L11.1371 17.2446Z" fill="white"/>
</mask>
<g mask="url(#mask0_1519_3338)">
</g>
</svg>
