<svg width="24" height="24" viewBox="0 0 24 24" fill="none" xmlns="http://www.w3.org/2000/svg">
<path fill-rule="evenodd" clip-rule="evenodd" d="M17.7144 5.2143H13.7858C13.7858 4.22808 12.9863 3.42859 12.0001 3.42859C11.0138 3.42859 10.2144 4.22808 10.2144 5.2143H6.28578C5.69405 5.2143 5.21436 5.694 5.21436 6.28573C5.21436 6.87747 5.69405 7.35716 6.28578 7.35716L6.90721 18.8822C6.9585 19.8305 7.74317 20.5728 8.69293 20.5714H15.3072C16.257 20.5728 17.0416 19.8305 17.0929 18.8822L17.7144 7.35716C18.3061 7.35716 18.7858 6.87747 18.7858 6.28573C18.7858 5.694 18.3061 5.2143 17.7144 5.2143ZM10.9286 17C10.9286 17.3945 10.6088 17.7143 10.2144 17.7143C9.81987 17.7143 9.50007 17.3945 9.50007 17V9.85716C9.50007 9.46267 9.81987 9.14287 10.2144 9.14287C10.6088 9.14287 10.9286 9.46267 10.9286 9.85716V17ZM14.5001 17C14.5001 17.3945 14.1803 17.7143 13.7858 17.7143C13.3913 17.7143 13.0715 17.3945 13.0715 17V9.85716C13.0715 9.46267 13.3913 9.14287 13.7858 9.14287C14.1803 9.14287 14.5001 9.46267 14.5001 9.85716V17Z" fill="#FF5244"/>
</svg>
