<svg width="16" height="16" viewBox="0 0 16 16" fill="none" xmlns="http://www.w3.org/2000/svg">
<rect width="16" height="16" fill="white"/>
<path fill-rule="evenodd" clip-rule="evenodd" d="M10.94 2.67243L12.9266 4.65906C13.0179 4.75028 13.0692 4.87406 13.0692 5.00313C13.0692 5.13221 13.0179 5.25599 12.9266 5.3472L10.94 7.33383C10.8011 7.47379 10.5916 7.51611 10.4093 7.44097C10.2271 7.36583 10.1082 7.18811 10.1084 6.99097V5.97699H5.00197C4.86768 5.97699 4.75881 6.08586 4.75881 6.22015V7.1928C4.75881 7.32178 4.70757 7.44548 4.61637 7.53668C4.52517 7.62788 4.40147 7.67912 4.27249 7.67912H3.29984C3.03126 7.67912 2.81352 7.46139 2.81352 7.1928V6.22015C2.81352 5.01151 3.79332 4.0317 5.00197 4.0317H10.1084V3.01529C10.1082 2.81816 10.2271 2.64043 10.4093 2.56529C10.5916 2.49015 10.8011 2.53247 10.94 2.67243ZM11.5673 8.40868H12.5399C12.8085 8.40868 13.0262 8.62642 13.0262 8.89501V9.86765C13.0262 11.0763 12.0464 12.0561 10.8378 12.0561H5.73139V13.0701C5.73056 13.2661 5.61209 13.4425 5.4309 13.5175C5.24971 13.5924 5.04126 13.5512 4.90221 13.4129L2.91558 11.4263C2.82426 11.3351 2.77295 11.2113 2.77295 11.0822C2.77295 10.9532 2.82426 10.8294 2.91558 10.7382L4.90221 8.75154C5.04126 8.61331 5.24971 8.5721 5.4309 8.64702C5.61209 8.72194 5.73056 8.89833 5.73139 9.0944V10.1108H10.8378C10.9721 10.1108 11.0809 10.0019 11.0809 9.86765V8.89501C11.0809 8.62642 11.2987 8.40868 11.5673 8.40868Z" fill="#4F755B"/>
</svg>
