<svg width="24" height="24" viewBox="0 0 24 24" fill="none" xmlns="http://www.w3.org/2000/svg">
<g clip-path="url(#clip0_1556_5805)">
<path d="M20 9.28125C20 8.23719 20 7.50678 20 7.4375C20 6.66209 19.3692 6.03125 18.5938 6.03125H18.4062V7.75C18.4062 8.00887 18.1964 8.21875 17.9375 8.21875C17.6786 8.21875 17.4688 8.00887 17.4688 7.75C17.4688 7.22378 17.4688 5.774 17.4688 5.25C17.4688 4.99112 17.2589 4.78125 17 4.78125C16.7411 4.78125 16.5312 4.99112 16.5312 5.25V6.03125H13.4062V7.75C13.4062 8.00887 13.1964 8.21875 12.9375 8.21875C12.6786 8.21875 12.4688 8.00887 12.4688 7.75C12.4688 7.22378 12.4688 5.774 12.4688 5.25C12.4688 4.99112 12.2589 4.78125 12 4.78125C11.7411 4.78125 11.5312 4.99112 11.5312 5.25V6.03125H8.40625V7.75C8.40625 8.00887 8.19637 8.21875 7.9375 8.21875C7.67863 8.21875 7.46875 8.00887 7.46875 7.75C7.46875 7.22378 7.46875 5.774 7.46875 5.25C7.46875 4.99112 7.25887 4.78125 7 4.78125C6.74113 4.78125 6.53125 4.99112 6.53125 5.25V6.03125H5.40625C4.63084 6.03125 4 6.66209 4 7.4375V9.28125H20Z" fill="#022541"/>
<path d="M4 10.2188V17.8125C4 18.5879 4.63084 19.2188 5.40625 19.2188H18.5938C19.3692 19.2188 20 18.5879 20 17.8125C20 17.6117 20 13.2246 20 10.2188C19.7083 10.2188 4.16138 10.2188 4 10.2188ZM8.5 16.7188H7.5C7.24113 16.7188 7.03125 16.5089 7.03125 16.25C7.03125 15.9911 7.24113 15.7812 7.5 15.7812H8.5C8.75887 15.7812 8.96875 15.9911 8.96875 16.25C8.96875 16.5089 8.75887 16.7188 8.5 16.7188ZM8.5 14.7188H7.5C7.24113 14.7188 7.03125 14.5089 7.03125 14.25C7.03125 13.9911 7.24113 13.7812 7.5 13.7812H8.5C8.75887 13.7812 8.96875 13.9911 8.96875 14.25C8.96875 14.5089 8.75887 14.7188 8.5 14.7188ZM8.5 12.7188H7.5C7.24113 12.7188 7.03125 12.5089 7.03125 12.25C7.03125 11.9911 7.24113 11.7812 7.5 11.7812H8.5C8.75887 11.7812 8.96875 11.9911 8.96875 12.25C8.96875 12.5089 8.75887 12.7188 8.5 12.7188ZM12.5 16.7188H11.5C11.2411 16.7188 11.0312 16.5089 11.0312 16.25C11.0312 15.9911 11.2411 15.7812 11.5 15.7812H12.5C12.7589 15.7812 12.9688 15.9911 12.9688 16.25C12.9688 16.5089 12.7589 16.7188 12.5 16.7188ZM12.5 14.7188H11.5C11.2411 14.7188 11.0312 14.5089 11.0312 14.25C11.0312 13.9911 11.2411 13.7812 11.5 13.7812H12.5C12.7589 13.7812 12.9688 13.9911 12.9688 14.25C12.9688 14.5089 12.7589 14.7188 12.5 14.7188ZM12.5 12.7188H11.5C11.2411 12.7188 11.0312 12.5089 11.0312 12.25C11.0312 11.9911 11.2411 11.7812 11.5 11.7812H12.5C12.7589 11.7812 12.9688 11.9911 12.9688 12.25C12.9688 12.5089 12.7589 12.7188 12.5 12.7188ZM16.5 16.7188H15.5C15.2411 16.7188 15.0312 16.5089 15.0312 16.25C15.0312 15.9911 15.2411 15.7812 15.5 15.7812H16.5C16.7589 15.7812 16.9688 15.9911 16.9688 16.25C16.9688 16.5089 16.7589 16.7188 16.5 16.7188ZM16.5 14.7188H15.5C15.2411 14.7188 15.0312 14.5089 15.0312 14.25C15.0312 13.9911 15.2411 13.7812 15.5 13.7812H16.5C16.7589 13.7812 16.9688 13.9911 16.9688 14.25C16.9688 14.5089 16.7589 14.7188 16.5 14.7188ZM16.5 12.7188H15.5C15.2411 12.7188 15.0312 12.5089 15.0312 12.25C15.0312 11.9911 15.2411 11.7812 15.5 11.7812H16.5C16.7589 11.7812 16.9688 11.9911 16.9688 12.25C16.9688 12.5089 16.7589 12.7188 16.5 12.7188Z" fill="#022541"/>
</g>
<defs>
<clipPath id="clip0_1556_5805">
<rect width="16" height="16" fill="white" transform="translate(4 4)"/>
</clipPath>
</defs>
</svg>
