<svg width="18" height="18" viewBox="0 0 18 18" fill="none" xmlns="http://www.w3.org/2000/svg">
<path fill-rule="evenodd" clip-rule="evenodd" d="M8.99989 0.428589C4.26603 0.428589 0.428467 4.26615 0.428467 9.00002C0.428467 13.7339 4.26603 17.5714 8.99989 17.5714C13.7338 17.5714 17.5713 13.7339 17.5713 9.00002C17.5713 6.72673 16.6683 4.54656 15.0608 2.9391C13.4534 1.33165 11.2732 0.428589 8.99989 0.428589ZM12.8963 7.36073L8.61061 11.6464C8.33201 11.9234 7.88207 11.9234 7.60347 11.6464L5.10347 9.14644C4.86077 8.86304 4.87709 8.44059 5.14092 8.17675C5.40476 7.91292 5.82721 7.8966 6.11061 8.1393L8.10704 10.1322L11.8892 6.35358C12.1726 6.11089 12.595 6.1272 12.8589 6.39104C13.1227 6.65487 13.139 7.07733 12.8963 7.36073V7.36073Z" fill="#00C48C"/>
</svg>
