<svg width="24" height="24" viewBox="0 0 24 24" fill="none" xmlns="http://www.w3.org/2000/svg">
<path fill-rule="evenodd" clip-rule="evenodd" d="M17.6572 18.2974H6.69273C5.81006 18.3051 5.05994 17.654 4.94345 16.779L3.77844 8.02218C3.72165 7.5851 3.94399 7.1591 4.33503 6.95575C4.72608 6.75241 5.20251 6.81505 5.52771 7.11256L7.48689 8.9283C7.69604 9.13298 7.98114 9.24105 8.2734 9.22644C8.56567 9.21182 8.83857 9.07585 9.02625 8.85134L11.3703 6.08749C11.5697 5.84936 11.8643 5.71179 12.1749 5.71179C12.4855 5.71179 12.7802 5.84936 12.9796 6.08749L15.3236 8.85134C15.5089 9.07114 15.7763 9.20531 16.0633 9.2225C16.3503 9.2397 16.6318 9.13841 16.842 8.9423L18.8012 7.10207C19.1264 6.80455 19.6028 6.74191 19.9939 6.94526C20.3849 7.1486 20.6072 7.5746 20.5505 8.01169L19.3854 16.758C19.2796 17.6334 18.5389 18.2932 17.6572 18.2974Z" fill="#022541"/>
</svg>
