<svg width="24" height="24" viewBox="0 0 24 24" fill="none" xmlns="http://www.w3.org/2000/svg">
<path fill-rule="evenodd" clip-rule="evenodd" d="M5.41976 18.5802C5.78901 18.9494 6.38927 18.9494 6.75852 18.5802L12 13.3387L17.2414 18.5802C17.6107 18.9494 18.2109 18.9494 18.5802 18.5802C18.9494 18.2109 18.9494 17.6107 18.5802 17.2414L13.3387 12L18.5802 6.75852C18.9494 6.38927 18.9494 5.78901 18.5802 5.41976C18.2109 5.05051 17.6107 5.05051 17.2414 5.41976L12 10.6612L6.75852 5.41976C6.38927 5.05051 5.78901 5.05051 5.41976 5.41976C5.05051 5.78901 5.05051 6.38927 5.41976 6.75852L10.6612 12L5.41976 17.2414C5.05051 17.6107 5.05051 18.2109 5.41976 18.5802Z" fill="#808C95"/>
<mask id="mask0_1564_4942" style="mask-type:luminance" maskUnits="userSpaceOnUse" x="5" y="5" width="14" height="14">
<path fill-rule="evenodd" clip-rule="evenodd" d="M5.41976 18.5802C5.78901 18.9494 6.38927 18.9494 6.75852 18.5802L12 13.3387L17.2414 18.5802C17.6107 18.9494 18.2109 18.9494 18.5802 18.5802C18.9494 18.2109 18.9494 17.6107 18.5802 17.2414L13.3387 12L18.5802 6.75852C18.9494 6.38927 18.9494 5.78901 18.5802 5.41976C18.2109 5.05051 17.6107 5.05051 17.2414 5.41976L12 10.6612L6.75852 5.41976C6.38927 5.05051 5.78901 5.05051 5.41976 5.41976C5.05051 5.78901 5.05051 6.38927 5.41976 6.75852L10.6612 12L5.41976 17.2414C5.05051 17.6107 5.05051 18.2109 5.41976 18.5802Z" fill="white"/>
</mask>
<g mask="url(#mask0_1564_4942)">
</g>
</svg>
