<svg width="24" height="24" viewBox="0 0 24 24" fill="none" xmlns="http://www.w3.org/2000/svg">
<path fill-rule="evenodd" clip-rule="evenodd" d="M18.5305 3.42847H7.5101C6.38299 3.42847 5.46928 4.34217 5.46928 5.46928V6.28561H4.65296C3.97669 6.28561 3.42847 6.83383 3.42847 7.5101C3.42847 8.18637 3.97669 8.73459 4.65296 8.73459H5.46928V10.7754H4.65296C3.97669 10.7754 3.42847 11.3236 3.42847 11.9999C3.42847 12.6762 3.97669 13.2244 4.65296 13.2244H5.46928V15.2652H4.65296C3.97669 15.2652 3.42847 15.8134 3.42847 16.4897C3.42847 17.166 3.97669 17.7142 4.65296 17.7142H5.46928V18.5305C5.46928 19.6576 6.38299 20.5713 7.5101 20.5713H18.5305C19.6576 20.5713 20.5713 19.6576 20.5713 18.5305V5.46928C20.5713 4.34217 19.6576 3.42847 18.5305 3.42847ZM13.0203 7.5101C14.0347 7.5101 14.857 8.33243 14.857 9.34683C14.857 10.3612 14.0347 11.1836 13.0203 11.1836C12.0059 11.1836 11.1836 10.3612 11.1836 9.34683C11.1825 8.85937 11.3756 8.39156 11.7203 8.04687C12.065 7.70218 12.5328 7.50901 13.0203 7.5101ZM15.8325 16.4897H10.2081C9.84882 16.4938 9.50592 16.3399 9.27019 16.0688C9.03445 15.7977 8.92966 15.4367 8.98357 15.0815C9.30602 13.3346 10.9836 11.9999 13.0081 11.9999C15.0325 11.9999 16.7101 13.3346 17.0325 15.0815C17.0858 15.4325 16.9841 15.7893 16.7539 16.0595C16.5237 16.3296 16.1875 16.4866 15.8325 16.4897Z" fill="#022541"/>
</svg>
