<svg width="18" height="12" viewBox="0 0 18 12" fill="none" xmlns="http://www.w3.org/2000/svg">
<path fill-rule="evenodd" clip-rule="evenodd" d="M17.5143 8.71077L16.4072 3.6572C15.9769 1.68683 14.2311 0.283041 12.2143 0.285771H5.78575C3.76895 0.283041 2.02314 1.68683 1.59289 3.6572L0.485749 8.71077C0.240158 9.83979 0.808414 10.9885 1.85484 11.4784C2.90128 11.9683 4.14742 11.6689 4.85718 10.7572L6.07861 9.18934C6.41719 8.75408 6.93788 8.49967 7.48932 8.50006H10.5107C11.0622 8.49967 11.5829 8.75408 11.9215 9.18934L13.1429 10.7572C13.8526 11.6689 15.0988 11.9683 16.1452 11.4784C17.1917 10.9885 17.7599 9.83979 17.5143 8.71077ZM5.63932 5.82149C4.85034 5.82149 4.21075 5.18189 4.21075 4.39291C4.21075 3.60394 4.85034 2.96434 5.63932 2.96434C6.4283 2.96434 7.06789 3.60394 7.06789 4.39291C7.06789 4.77179 6.91738 5.13516 6.64947 5.40307C6.38156 5.67098 6.0182 5.82149 5.63932 5.82149ZM10.9965 5.82148C10.602 5.82148 10.2822 5.50169 10.2822 5.1072C10.2822 4.71271 10.602 4.39291 10.9965 4.39291C11.391 4.39291 11.7107 4.71271 11.7107 5.1072C11.7107 5.50169 11.391 5.82148 10.9965 5.82148ZM12.7822 4.39291C12.3877 4.39291 12.0679 4.07312 12.0679 3.67863C12.0679 3.28414 12.3877 2.96434 12.7822 2.96434C13.1767 2.96434 13.4965 3.28414 13.4965 3.67863C13.4965 4.07312 13.1767 4.39291 12.7822 4.39291Z" fill="#022541"/>
</svg>
