<svg width="12" height="10" viewBox="0 0 12 10" fill="none" xmlns="http://www.w3.org/2000/svg">
<path d="M10.5863 0.325818L4.73122 7.7029L1.33049 3.41277C1.18424 3.24207 0.985996 3.1462 0.779299 3.1462C0.572602 3.1462 0.374357 3.24207 0.228109 3.41277C0.0820434 3.58367 0 3.81535 0 4.05689C0 4.29844 0.0820434 4.53012 0.228109 4.70102L4.20084 9.7082C4.27385 9.80023 4.36234 9.87366 4.46077 9.92387C4.55919 9.97408 4.66543 10 4.77282 10C4.88022 10 4.98646 9.97408 5.08488 9.92387C5.18331 9.87366 5.2718 9.80023 5.34481 9.7082L11.7719 1.61407C11.918 1.44317 12 1.21149 12 0.969944C12 0.728396 11.918 0.496724 11.7719 0.325818C11.6997 0.22389 11.6091 0.14184 11.5066 0.0855204C11.4042 0.029201 11.2923 0 11.1791 0C11.0659 0 10.954 0.029201 10.8516 0.0855204C10.7491 0.14184 10.6585 0.22389 10.5863 0.325818Z" fill="#4F755B"/>
</svg>
