<svg width="18" height="14" viewBox="0 0 18 14" fill="none" xmlns="http://www.w3.org/2000/svg">
<path fill-rule="evenodd" clip-rule="evenodd" d="M15.7856 0.571411H2.21418C1.22796 0.571411 0.428467 1.3709 0.428467 2.35713V11.6428C0.428467 12.6291 1.22796 13.4286 2.21418 13.4286H15.7856C16.2592 13.4286 16.7134 13.2404 17.0483 12.9055C17.3832 12.5706 17.5713 12.1164 17.5713 11.6428V2.35713C17.5713 1.88352 17.3832 1.42932 17.0483 1.09443C16.7134 0.759548 16.2592 0.571411 15.7856 0.571411ZM14.357 10.9286H12.5713C12.1768 10.9286 11.857 10.6088 11.857 10.2143C11.857 9.81978 12.1768 9.49998 12.5713 9.49998H14.357C14.7515 9.49998 15.0713 9.81978 15.0713 10.2143C15.0713 10.6088 14.7515 10.9286 14.357 10.9286ZM14.357 4.49998H3.64275C3.24826 4.49998 2.92847 4.18018 2.92847 3.78569C2.92847 3.3912 3.24826 3.07141 3.64275 3.07141H14.357C14.7515 3.07141 15.0713 3.3912 15.0713 3.78569C15.0713 4.18018 14.7515 4.49998 14.357 4.49998Z" fill="#022541"/>
</svg>
