<svg width="12" height="12" viewBox="0 0 12 12" fill="none" xmlns="http://www.w3.org/2000/svg">
<path fill-rule="evenodd" clip-rule="evenodd" d="M11.4485 3.36604L9.37011 0.604581C9.21953 0.403806 8.9832 0.285645 8.73223 0.285645H3.15084C2.89987 0.285645 2.66355 0.403806 2.51297 0.604581L0.445192 3.36604C0.240437 3.64624 0.240437 4.02671 0.445192 4.30691L5.2824 11.0976C5.43013 11.3203 5.6796 11.4542 5.94685 11.4542C6.2141 11.4542 6.46358 11.3203 6.6113 11.0976L11.4485 4.30691C11.6533 4.02671 11.6533 3.64624 11.4485 3.36604ZM8.59931 4.36538H3.28369C2.99012 4.36538 2.75213 4.12739 2.75213 3.83382C2.75213 3.54025 2.99012 3.30226 3.28369 3.30226H8.59931C8.89288 3.30226 9.13087 3.54025 9.13087 3.83382C9.13087 4.12739 8.89288 4.36538 8.59931 4.36538Z" fill="#DAA210"/>
</svg>
