<svg width="24" height="24" viewBox="0 0 24 24" fill="none" xmlns="http://www.w3.org/2000/svg">
<path fill-rule="evenodd" clip-rule="evenodd" d="M4.92855 5.14282H19.0714C20.3715 5.14282 21.4286 6.21663 21.4286 7.53663V8.01539H2.57141V7.53663C2.57141 6.21663 3.62846 5.14282 4.92855 5.14282ZM4.92855 18.7619C3.62846 18.7619 2.57141 17.6881 2.57141 16.3681V10.1442H21.4286V16.3681C21.4286 17.6881 20.3715 18.7619 19.0714 18.7619H4.92855ZM18.5476 14.7725C18.5476 14.1848 18.0783 13.7082 17.5 13.7082C16.9217 13.7082 16.4524 14.1838 16.4524 14.7725C16.4524 15.3602 16.9217 15.8369 17.5 15.8369C18.0783 15.8369 18.5476 15.3602 18.5476 14.7725ZM15.9286 14.7725C15.9286 14.1848 15.4592 13.7082 14.8809 13.7082C14.3027 13.7082 13.8333 14.1838 13.8333 14.7725C13.8333 15.3602 14.3027 15.8369 14.8809 15.8369C15.4592 15.8369 15.9286 15.3602 15.9286 14.7725Z" fill="#022541"/>
<mask id="mask0_1655_5340" style="mask-type:luminance" maskUnits="userSpaceOnUse" x="2" y="5" width="20" height="14">
<path fill-rule="evenodd" clip-rule="evenodd" d="M4.92855 5.14282H19.0714C20.3715 5.14282 21.4286 6.21663 21.4286 7.53663V8.01539H2.57141V7.53663C2.57141 6.21663 3.62846 5.14282 4.92855 5.14282ZM4.92855 18.7619C3.62846 18.7619 2.57141 17.6881 2.57141 16.3681V10.1442H21.4286V16.3681C21.4286 17.6881 20.3715 18.7619 19.0714 18.7619H4.92855ZM18.5476 14.7725C18.5476 14.1848 18.0783 13.7082 17.5 13.7082C16.9217 13.7082 16.4524 14.1838 16.4524 14.7725C16.4524 15.3602 16.9217 15.8369 17.5 15.8369C18.0783 15.8369 18.5476 15.3602 18.5476 14.7725ZM15.9286 14.7725C15.9286 14.1848 15.4592 13.7082 14.8809 13.7082C14.3027 13.7082 13.8333 14.1838 13.8333 14.7725C13.8333 15.3602 14.3027 15.8369 14.8809 15.8369C15.4592 15.8369 15.9286 15.3602 15.9286 14.7725Z" fill="white"/>
</mask>
<g mask="url(#mask0_1655_5340)">
</g>
</svg>
