<svg width="18" height="18" viewBox="0 0 18 18" fill="none" xmlns="http://www.w3.org/2000/svg">
<path fill-rule="evenodd" clip-rule="evenodd" d="M9.00002 0.428589C4.26615 0.428589 0.428589 4.26615 0.428589 9.00002V15.5306C0.428589 16.6577 1.34229 17.5714 2.4694 17.5714H3.28573C3.962 17.5714 4.51022 17.0232 4.51022 16.347V12.6735C4.51022 11.9972 3.962 11.449 3.28573 11.449C2.83489 11.449 2.4694 11.0835 2.4694 10.6327V9.00002C2.4694 5.39326 5.39326 2.4694 9.00002 2.4694C12.6068 2.4694 15.5306 5.39326 15.5306 9.00002V10.6327C15.5306 11.0835 15.1651 11.449 14.7143 11.449C14.038 11.449 13.4898 11.9972 13.4898 12.6735V16.347C13.4898 17.0232 14.038 17.5714 14.7143 17.5714H15.5306C16.6577 17.5714 17.5714 16.6577 17.5714 15.5306V9.00002C17.5714 4.26615 13.7339 0.428589 9.00002 0.428589Z" fill="#4F755B"/>
</svg>
