<svg width="24" height="24" viewBox="0 0 24 24" fill="none" xmlns="http://www.w3.org/2000/svg">
<path fill-rule="evenodd" clip-rule="evenodd" d="M3.42847 8.57141C3.42847 5.25771 6.11476 2.57141 9.42847 2.57141H14.5713C17.885 2.57141 20.5713 5.2577 20.5713 8.57141V15.4286C20.5713 18.7423 17.885 21.4286 14.5713 21.4286H9.42846C6.11476 21.4286 3.42847 18.7423 3.42847 15.4286V8.57141ZM4.89786 8.4512C4.89786 5.96592 6.91257 3.9512 9.39786 3.9512H14.6019C17.0872 3.9512 19.1019 5.96592 19.1019 8.4512V15.5488C19.1019 18.034 17.0872 20.0488 14.6019 20.0488H9.39786C6.91258 20.0488 4.89786 18.034 4.89786 15.5488V8.4512ZM9.61662 5.79092C8.09255 5.79092 6.85704 7.02643 6.85704 8.5505C6.85704 10.0746 8.09255 11.3101 9.61662 11.3101H14.3832C15.9072 11.3101 17.1428 10.0746 17.1428 8.5505C17.1428 7.02643 15.9072 5.79092 14.3832 5.79092H9.61662Z" fill="#B3BABF"/>
</svg>
