<svg width="24" height="24" viewBox="0 0 24 24" fill="none" xmlns="http://www.w3.org/2000/svg">
<path fill-rule="evenodd" clip-rule="evenodd" d="M17.115 4.53581C17.115 4.25566 16.8878 4.02856 16.6077 4.02856H7.96439C7.68424 4.02856 7.45714 4.25566 7.45714 4.53581L7.45714 19.5775L10.4234 16.6112C11.4525 15.5834 13.1196 15.5834 14.1493 16.6119L17.115 19.5775V4.53581ZM16.5606 21.0838L13.119 17.6422C12.6588 17.1826 11.9133 17.1826 11.4531 17.6422L8.01154 21.0838C7.67447 21.4205 7.16788 21.5211 6.72773 21.3389C6.28758 21.1566 6.00042 20.7273 6 20.2509V4.5358C6 3.4509 6.87949 2.57141 7.96439 2.57141H16.6077C17.6926 2.57141 18.5721 3.4509 18.5721 4.5358V20.2509C18.5717 20.7273 18.2845 21.1566 17.8444 21.3389C17.4042 21.5211 16.8976 21.4205 16.5606 21.0838ZM12.5636 6.18776L13.2097 7.55209L14.5329 7.69275C14.6659 7.7113 14.7759 7.80577 14.8142 7.93448C14.8526 8.06319 14.8124 8.20247 14.7113 8.29086L13.6591 9.15887L13.9851 10.617C14.0107 10.7486 13.9573 10.8831 13.8484 10.9613C13.7394 11.0395 13.5949 11.047 13.4784 10.9806L12.2571 10.2384L11.0368 10.9806C10.9203 11.047 10.7758 11.0395 10.6669 10.9613C10.558 10.8831 10.5046 10.7486 10.5302 10.617L10.8561 9.15887L9.80287 8.29086C9.70169 8.20231 9.66156 8.06282 9.70022 7.93404C9.73887 7.80526 9.84919 7.71094 9.98242 7.69275L11.3056 7.55209L11.9517 6.18776C12.0102 6.07256 12.1284 5.99998 12.2576 5.99998C12.3868 5.99998 12.5051 6.07256 12.5636 6.18776Z" fill="#B3BABF"/>
</svg>
