<svg width="8" height="12" viewBox="0 0 8 12" fill="none" xmlns="http://www.w3.org/2000/svg">
<path fill-rule="evenodd" clip-rule="evenodd" d="M6.56569 0.285645H1.43449C0.79043 0.285645 0.268313 0.807761 0.268313 1.45183V10.7813C0.267617 11.0645 0.437746 11.3202 0.699259 11.429C0.960771 11.5378 1.26208 11.4782 1.46248 11.2781L3.50563 9.23492C3.77881 8.96207 4.22137 8.96207 4.49455 9.23492L6.5377 11.2781C6.7381 11.4782 7.03941 11.5378 7.30092 11.429C7.56243 11.3202 7.73256 11.0645 7.73187 10.7813V1.45183C7.73187 0.807761 7.20975 0.285645 6.56569 0.285645ZM5.1662 5.18361H4.46649V5.88331C4.46649 6.14094 4.25764 6.34979 4.00002 6.34979C3.74239 6.34979 3.53354 6.14094 3.53354 5.88331V5.18361H2.83383C2.57621 5.18361 2.36736 4.97476 2.36736 4.71713C2.36736 4.45951 2.57621 4.25066 2.83383 4.25066H3.53354V3.55095C3.53354 3.29333 3.74239 3.08448 4.00002 3.08448C4.25764 3.08448 4.46649 3.29333 4.46649 3.55095V4.25066H5.1662C5.42382 4.25066 5.63267 4.45951 5.63267 4.71713C5.63267 4.97476 5.42382 5.18361 5.1662 5.18361Z" fill="white"/>
</svg>
