<svg width="24" height="24" viewBox="0 0 24 24" fill="none" xmlns="http://www.w3.org/2000/svg">
<path fill-rule="evenodd" clip-rule="evenodd" d="M18.4286 1.71423C16.7717 1.71423 15.4286 3.05738 15.4286 4.71423C15.4286 6.37109 16.7717 7.71423 18.4286 7.71423C20.0854 7.71423 21.4286 6.37109 21.4286 4.71423C21.4286 3.05738 20.0854 1.71423 18.4286 1.71423ZM13.7143 3.21946C13.7143 2.99747 13.7368 2.78072 13.7796 2.57138H9.42859C6.11488 2.57138 3.42859 5.25767 3.42859 8.57138V15.4285C3.42859 18.7422 6.11488 21.4285 9.42859 21.4285H14.5714C17.8852 21.4285 20.5714 18.7422 20.5714 15.4285V9.36327C20.3621 9.40605 20.1454 9.42852 19.9234 9.42852H19.1021V15.5487C19.1021 18.034 17.0873 20.0487 14.6021 20.0487H9.39798C6.9127 20.0487 4.89797 18.034 4.89797 15.5487V8.45117C4.89797 5.96589 6.91269 3.95117 9.39797 3.95117H13.7143V3.21946Z" fill="#B3BABF"/>
</svg>
