<svg width="24" height="24" viewBox="0 0 24 24" fill="none" xmlns="http://www.w3.org/2000/svg">
<path fill-rule="evenodd" clip-rule="evenodd" d="M15.5714 7.00002C15.5714 8.97246 13.9724 10.5714 12 10.5714C10.0276 10.5714 8.42858 8.97246 8.42858 7.00002C8.42858 5.02757 10.0276 3.42859 12 3.42859C13.9724 3.42859 15.5714 5.02757 15.5714 7.00002ZM4.5 18.7857C4.5 15.0357 7.85714 12 12 12C16.1429 12 19.5 15.0357 19.5 18.7857C19.5 19.772 18.7005 20.5714 17.7143 20.5714H6.28571C5.81211 20.5714 5.35791 20.3833 5.02302 20.0484C4.68814 19.7135 4.5 19.2593 4.5 18.7857Z" fill="#022541"/>
</svg>
