<svg width="12" height="12" viewBox="0 0 12 12" fill="none" xmlns="http://www.w3.org/2000/svg">
<path d="M9.92393 2.29795H10.8659C10.9853 2.29795 11.0997 2.25054 11.1841 2.16615C11.2685 2.08176 11.3159 1.9673 11.3159 1.84795C11.3159 1.7286 11.2685 1.61414 11.1841 1.52975C11.0997 1.44536 10.9853 1.39795 10.8659 1.39795H8.77193C8.66278 1.39908 8.55798 1.44092 8.47807 1.51528C8.39816 1.58964 8.34889 1.69116 8.33993 1.79995C8.33653 1.82584 8.33653 1.85206 8.33993 1.87795V3.94195C8.33993 4.0613 8.38734 4.17576 8.47173 4.26015C8.55612 4.34454 8.67058 4.39195 8.78993 4.39195C8.90927 4.39195 9.02373 4.34454 9.10812 4.26015C9.19252 4.17576 9.23993 4.0613 9.23993 3.94195V2.86795C9.85863 3.5022 10.276 4.3052 10.4397 5.176C10.6033 6.0468 10.5059 6.94655 10.1597 7.76214C9.81343 8.57773 9.23382 9.27278 8.49369 9.7599C7.75357 10.247 6.88596 10.5045 5.99993 10.4999C5.88058 10.4999 5.76612 10.5474 5.68173 10.6318C5.59734 10.7161 5.54993 10.8306 5.54993 10.9499C5.54993 11.0693 5.59734 11.1838 5.68173 11.2681C5.76612 11.3525 5.88058 11.4 5.99993 11.4C7.05352 11.3985 8.08367 11.0889 8.96348 10.5093C9.84329 9.92963 10.5343 9.10527 10.9514 8.13777C11.3685 7.17026 11.4935 6.10186 11.3109 5.06421C11.1284 4.02656 10.6462 3.06498 9.92393 2.29795Z" fill="#DAA210"/>
<path d="M3.83385 8.1181C3.83385 7.99875 3.78644 7.88429 3.70205 7.7999C3.61766 7.71551 3.5032 7.6681 3.38385 7.6681C3.2645 7.6681 3.15004 7.71551 3.06565 7.7999C2.98126 7.88429 2.93385 7.99875 2.93385 8.1181V9.2821C2.4806 8.86415 2.1191 8.35662 1.87225 7.79166C1.6254 7.2267 1.49859 6.61663 1.49985 6.0001C1.49985 4.80662 1.97395 3.66203 2.81787 2.81812C3.66178 1.9742 4.80638 1.5001 5.99985 1.5001C6.1192 1.5001 6.23366 1.45269 6.31805 1.3683C6.40244 1.2839 6.44985 1.16945 6.44985 1.0501C6.44985 0.930751 6.40244 0.816291 6.31805 0.7319C6.23366 0.647509 6.1192 0.600098 5.99985 0.600098C4.93839 0.599692 3.90036 0.912121 3.01547 1.49834C2.13058 2.08456 1.43808 2.91857 1.02451 3.89615C0.610948 4.87372 0.494661 5.9515 0.690184 6.99479C0.885707 8.03808 1.38437 9.00062 2.12385 9.7621H1.28985C1.1705 9.7621 1.05604 9.80951 0.971651 9.8939C0.887259 9.97829 0.839849 10.0927 0.839849 10.2121C0.839849 10.3314 0.887259 10.4459 0.971651 10.5303C1.05604 10.6147 1.1705 10.6621 1.28985 10.6621H3.39585H3.43185C3.49076 10.659 3.5482 10.6426 3.59985 10.6141C3.6333 10.5998 3.66382 10.5795 3.68985 10.5541L3.74985 10.5001C3.74985 10.5001 3.78585 10.4701 3.80385 10.4461C3.85392 10.359 3.87296 10.2574 3.85785 10.1581L3.83385 8.1181Z" fill="#DAA210"/>
</svg>
