<svg width="72" height="72" viewBox="0 0 72 72" fill="none" xmlns="http://www.w3.org/2000/svg">
<g filter="url(#filter0_d_1556_5769)">
<circle cx="36" cy="36" r="20" fill="white"/>
<g clip-path="url(#clip0_1556_5769)">
<path d="M42.54 29.83H44.11C44.3089 29.83 44.4997 29.751 44.6403 29.6103C44.781 29.4697 44.86 29.2789 44.86 29.08C44.86 28.8811 44.781 28.6903 44.6403 28.5497C44.4997 28.409 44.3089 28.33 44.11 28.33H40.62C40.4381 28.3319 40.2634 28.4016 40.1302 28.5256C39.9971 28.6495 39.9149 28.8187 39.9 29C39.8943 29.0432 39.8943 29.0869 39.9 29.13V32.57C39.9 32.7689 39.979 32.9597 40.1197 33.1003C40.2603 33.241 40.4511 33.32 40.65 33.32C40.8489 33.32 41.0397 33.241 41.1803 33.1003C41.321 32.9597 41.4 32.7689 41.4 32.57V30.78C42.4312 31.8371 43.1269 33.1754 43.3996 34.6268C43.6723 36.0781 43.51 37.5777 42.9329 38.937C42.3558 40.2963 41.3898 41.4547 40.1563 42.2666C38.9227 43.0785 37.4767 43.5076 36 43.5C35.8011 43.5 35.6103 43.579 35.4697 43.7197C35.329 43.8603 35.25 44.0511 35.25 44.25C35.25 44.4489 35.329 44.6397 35.4697 44.7803C35.6103 44.921 35.8011 45 36 45C37.756 44.9976 39.4729 44.4816 40.9393 43.5156C42.4056 42.5495 43.5573 41.1756 44.2525 39.563C44.9477 37.9505 45.156 36.1699 44.8517 34.4405C44.5474 32.711 43.7438 31.1084 42.54 29.83Z" fill="#DAA210"/>
<path d="M32.39 39.53C32.39 39.3311 32.311 39.1403 32.1704 38.9997C32.0297 38.859 31.8389 38.78 31.64 38.78C31.4411 38.78 31.2504 38.859 31.1097 38.9997C30.969 39.1403 30.89 39.3311 30.89 39.53V41.47C30.1346 40.7734 29.5321 39.9275 29.1207 38.9859C28.7093 38.0443 28.4979 37.0276 28.5 36C28.5 34.0109 29.2902 32.1032 30.6967 30.6967C32.1033 29.2902 34.0109 28.5 36 28.5C36.1989 28.5 36.3897 28.421 36.5304 28.2803C36.671 28.1397 36.75 27.9489 36.75 27.75C36.75 27.5511 36.671 27.3603 36.5304 27.2197C36.3897 27.079 36.1989 27 36 27C34.2309 26.9993 32.5009 27.52 31.0261 28.4971C29.5512 29.4741 28.3971 30.8641 27.7078 32.4934C27.0185 34.1227 26.8247 35.919 27.1506 37.6578C27.4765 39.3966 28.3076 41.0009 29.54 42.27H28.15C27.9511 42.27 27.7604 42.349 27.6197 42.4897C27.4791 42.6303 27.4 42.8211 27.4 43.02C27.4 43.2189 27.4791 43.4097 27.6197 43.5503C27.7604 43.691 27.9511 43.77 28.15 43.77H31.66H31.72C31.8182 43.7649 31.914 43.7375 32 43.69C32.0558 43.6662 32.1066 43.6323 32.15 43.59L32.25 43.5C32.25 43.5 32.31 43.45 32.34 43.41C32.4235 43.2648 32.4552 43.0956 32.43 42.93L32.39 39.53Z" fill="#DAA210"/>
</g>
</g>
<defs>
<filter id="filter0_d_1556_5769" x="0" y="0" width="72" height="72" filterUnits="userSpaceOnUse" color-interpolation-filters="sRGB">
<feFlood flood-opacity="0" result="BackgroundImageFix"/>
<feColorMatrix in="SourceAlpha" type="matrix" values="0 0 0 0 0 0 0 0 0 0 0 0 0 0 0 0 0 0 127 0" result="hardAlpha"/>
<feOffset/>
<feGaussianBlur stdDeviation="8"/>
<feColorMatrix type="matrix" values="0 0 0 0 0 0 0 0 0 0 0 0 0 0 0 0 0 0 0.08 0"/>
<feBlend mode="normal" in2="BackgroundImageFix" result="effect1_dropShadow_1556_5769"/>
<feBlend mode="normal" in="SourceGraphic" in2="effect1_dropShadow_1556_5769" result="shape"/>
</filter>
<clipPath id="clip0_1556_5769">
<rect width="24" height="24" fill="white" transform="translate(24 24)"/>
</clipPath>
</defs>
</svg>
