<svg width="16" height="16" viewBox="0 0 16 16" fill="none" xmlns="http://www.w3.org/2000/svg">
<g clip-path="url(#clip0_1467_1786)">
<path d="M12.36 3.88664H13.4067C13.5393 3.88664 13.6665 3.83396 13.7602 3.7402C13.854 3.64643 13.9067 3.51925 13.9067 3.38664C13.9067 3.25403 13.854 3.12686 13.7602 3.03309C13.6665 2.93932 13.5393 2.88664 13.4067 2.88664H11.08C10.9587 2.88789 10.8423 2.93439 10.7535 3.01701C10.6647 3.09963 10.61 3.21243 10.6 3.33331C10.5962 3.36207 10.5962 3.39121 10.6 3.41998V5.71331C10.6 5.84592 10.6527 5.97309 10.7464 6.06686C10.8402 6.16063 10.9674 6.21331 11.1 6.21331C11.2326 6.21331 11.3598 6.16063 11.4536 6.06686C11.5473 5.97309 11.6 5.84592 11.6 5.71331V4.51998C12.2874 5.2247 12.7512 6.11692 12.9331 7.08448C13.1149 8.05204 13.0066 9.05175 12.6219 9.95797C12.2372 10.8642 11.5932 11.6365 10.7708 12.1777C9.94849 12.719 8.98448 13.005 8 13C7.86739 13 7.74022 13.0527 7.64645 13.1464C7.55268 13.2402 7.5 13.3674 7.5 13.5C7.5 13.6326 7.55268 13.7598 7.64645 13.8535C7.74022 13.9473 7.86739 14 8 14C9.17065 13.9984 10.3153 13.6544 11.2928 13.0103C12.2704 12.3663 13.0382 11.4503 13.5017 10.3753C13.9651 9.30032 14.104 8.11321 13.9011 6.96027C13.6983 5.80732 13.1626 4.7389 12.36 3.88664Z" fill="#4980FF"/>
<path d="M5.59319 10.3533C5.59319 10.2207 5.54051 10.0935 5.44675 9.99978C5.35298 9.90601 5.2258 9.85333 5.09319 9.85333C4.96058 9.85333 4.83341 9.90601 4.73964 9.99978C4.64587 10.0935 4.59319 10.2207 4.59319 10.3533V11.6467C4.08958 11.1823 3.68791 10.6184 3.41364 9.99063C3.13937 9.3629 2.99846 8.68504 2.99986 8C2.99986 6.67392 3.52664 5.40215 4.46432 4.46447C5.40201 3.52678 6.67378 3 7.99986 3C8.13247 3 8.25964 2.94732 8.35341 2.85355C8.44718 2.75979 8.49986 2.63261 8.49986 2.5C8.49986 2.36739 8.44718 2.24022 8.35341 2.14645C8.25964 2.05268 8.13247 2 7.99986 2C6.82046 1.99955 5.66709 2.34669 4.68388 2.99805C3.70067 3.64941 2.93122 4.57608 2.47171 5.66228C2.01219 6.74847 1.88298 7.946 2.10023 9.10522C2.31748 10.2644 2.87155 11.3339 3.69319 12.18H2.76653C2.63392 12.18 2.50674 12.2327 2.41297 12.3264C2.3192 12.4202 2.26653 12.5474 2.26653 12.68C2.26653 12.8126 2.3192 12.9398 2.41297 13.0336C2.50674 13.1273 2.63392 13.18 2.76653 13.18H5.10653H5.14653C5.21198 13.1766 5.2758 13.1583 5.33319 13.1267C5.37036 13.1108 5.40427 13.0882 5.43319 13.06L5.49986 13C5.49986 13 5.53986 12.9667 5.55986 12.94C5.61549 12.8432 5.63665 12.7304 5.61986 12.62L5.59319 10.3533Z" fill="#4980FF"/>
</g>
<defs>
<clipPath id="clip0_1467_1786">
<rect width="16" height="16" fill="white"/>
</clipPath>
</defs>
</svg>
