<svg width="16" height="18" viewBox="0 0 16 18" fill="none" xmlns="http://www.w3.org/2000/svg">
<path fill-rule="evenodd" clip-rule="evenodd" d="M11.4675 1.85062C8.8297 0.432403 5.6255 0.580634 3.12987 2.23633L1.92987 1.04802C1.70744 0.82376 1.37163 0.755959 1.07961 0.876352C0.787599 0.996744 0.597148 1.28151 0.5974 1.59737V5.95322C0.5974 6.38357 0.946269 6.73244 1.37662 6.73244H5.72857C6.04514 6.73428 6.33136 6.54441 6.45275 6.25203C6.57415 5.95966 6.50659 5.6229 6.28182 5.39997L5.3935 4.51166C7.24551 3.60861 9.45998 3.91747 10.9942 5.29282C12.5284 6.66816 13.0766 8.83584 12.3806 10.7752C11.6845 12.7145 9.88308 14.0389 7.82443 14.1248C5.76578 14.2106 3.86029 13.0408 3.00519 11.1662C2.83116 10.8182 2.42704 10.6518 2.05844 10.7766L0.570127 11.2052C0.360646 11.2682 0.187301 11.4164 0.0924462 11.6135C-0.00240862 11.8106 -0.0100365 12.0385 0.0714262 12.2415C1.46746 15.558 4.86645 17.5732 8.44607 17.2065C12.0257 16.8399 14.9456 14.1775 15.6403 10.6469C16.335 7.1162 14.6414 3.5461 11.4675 1.85062Z" fill="#022541"/>
</svg>
