<svg width="91" height="57" viewBox="0 0 91 57" fill="none" xmlns="http://www.w3.org/2000/svg">
<circle cx="20" cy="29" r="20" fill="#FF5244"/>
<path d="M25.6491 23.3509C25.181 22.883 24.4224 22.883 23.9543 23.3509L20.0075 27.2977L16.0607 23.3509C15.5904 22.8967 14.8429 22.9032 14.3805 23.3655C13.9182 23.8278 13.9117 24.5754 14.3659 25.0457L18.3128 28.9925L14.3659 32.9393C14.0544 33.2402 13.9294 33.6859 14.0391 34.1049C14.1488 34.524 14.476 34.8512 14.8951 34.9609C15.3141 35.0706 15.7598 34.9456 16.0607 34.6341L20.0075 30.6872L23.9543 34.6341C24.4246 35.0883 25.1722 35.0818 25.6345 34.6195C26.0968 34.1571 26.1033 33.4096 25.6491 32.9393L21.7023 28.9925L25.6491 25.0457C26.117 24.5776 26.117 23.819 25.6491 23.3509Z" fill="white"/>
<path d="M91 0C56.8419 28.6118 40 24.0001 37 21.0001V38.0001C48 29.5001 78.8605 45.8235 91 57V0Z" fill="#FF5244"/>
</svg>
