<svg width="16" height="16" viewBox="0 0 16 16" fill="none" xmlns="http://www.w3.org/2000/svg">
<path fill-rule="evenodd" clip-rule="evenodd" d="M12.9954 7.42136C12.6303 5.23003 10.8631 3.54238 8.6573 3.2785V2.88088C8.6573 2.55214 8.3908 2.28564 8.06206 2.28564C7.73332 2.28564 7.46682 2.55214 7.46682 2.88088V3.2785C5.25733 3.53844 3.48535 5.22696 3.1192 7.42136C3.08929 7.6278 3.15112 7.83701 3.28846 7.99403C3.42579 8.15104 3.6249 8.24018 3.83349 8.23803H7.46682V12.0475C7.46682 12.3105 7.25362 12.5237 6.99063 12.5237C6.72764 12.5237 6.51444 12.3105 6.51444 12.0475V11.9285C6.51444 11.5998 6.24794 11.3333 5.9192 11.3333C5.59046 11.3333 5.32396 11.5998 5.32396 11.9285V12.0475C5.32396 12.968 6.07016 13.7142 6.99063 13.7142C7.91111 13.7142 8.6573 12.968 8.6573 12.0475V8.23803H12.2882C12.4956 8.23809 12.6927 8.14806 12.8285 7.99131C12.9642 7.83456 13.0251 7.62656 12.9954 7.42136Z" fill="#022541"/>
</svg>
