<svg width="64" height="64" viewBox="0 0 64 64" fill="none" xmlns="http://www.w3.org/2000/svg">
<g filter="url(#filter0_d_1634_6338)">
<path fill-rule="evenodd" clip-rule="evenodd" d="M32 37C38.6274 37 44 31.6274 44 25C44 18.3726 38.6274 13 32 13C25.3726 13 20 18.3726 20 25C20 31.6274 25.3726 37 32 37Z" fill="white"/>
</g>
<path d="M32.0001 34.3333C37.1547 34.3333 41.3334 30.1546 41.3334 25C41.3334 19.8453 37.1547 15.6666 32.0001 15.6666C26.8454 15.6666 22.6667 19.8453 22.6667 25C22.6667 30.1546 26.8454 34.3333 32.0001 34.3333Z" fill="#00C48C"/>
<g clip-path="url(#clip0_1634_6338)">
<path d="M32.3532 23.0799C32.2594 22.9863 32.1324 22.9337 31.9999 22.9337C31.8674 22.9337 31.7403 22.9863 31.6465 23.0799L29.9999 24.6933C29.9074 24.789 29.8557 24.9169 29.8557 25.0499C29.8557 25.183 29.9074 25.3109 29.9999 25.4066C30.0936 25.5002 30.2207 25.5528 30.3532 25.5528C30.4857 25.5528 30.6128 25.5002 30.7065 25.4066L31.4999 24.6266V27.1666C31.4999 27.2992 31.5525 27.4264 31.6463 27.5202C31.7401 27.6139 31.8672 27.6666 31.9999 27.6666C32.1325 27.6666 32.2596 27.6139 32.3534 27.5202C32.4472 27.4264 32.4999 27.2992 32.4999 27.1666V24.6333L33.2932 25.4133C33.3878 25.507 33.5157 25.5593 33.6489 25.5587C33.782 25.558 33.9095 25.5045 34.0032 25.4099C34.0969 25.3153 34.1492 25.1874 34.1486 25.0543C34.1479 24.9211 34.0945 24.7937 33.9999 24.6999L32.3532 23.0799Z" fill="white"/>
<path d="M38.2133 23.6666C37.8238 22.8989 37.2051 22.2715 36.443 21.8713C35.6808 21.4711 34.813 21.318 33.9599 21.4333L33.9133 21.3866C33.235 20.7269 32.3261 20.3578 31.3799 20.3578C30.4337 20.3578 29.5249 20.7269 28.8466 21.3866C28.2835 21.9383 27.924 22.6644 27.8266 23.4466C27.2382 23.5738 26.699 23.8677 26.2733 24.2933C25.975 24.5809 25.738 24.9258 25.5765 25.3073C25.415 25.6888 25.3322 26.099 25.3333 26.5133C25.335 26.9292 25.4186 27.3406 25.5794 27.7241C25.7402 28.1077 25.9749 28.4558 26.2702 28.7486C26.5655 29.0414 26.9155 29.2732 27.3004 29.4307C27.6853 29.5882 28.0974 29.6684 28.5133 29.6666H34.4666C35.5729 29.672 36.6362 29.2385 37.4235 28.4612C38.2108 27.6839 38.6578 26.6263 38.6666 25.52C38.6636 24.8751 38.5083 24.2401 38.2133 23.6666ZM34.4666 28.6666H28.5133C27.9392 28.6684 27.3877 28.443 26.9792 28.0395C26.5708 27.6361 26.3385 27.0874 26.3333 26.5133C26.3363 26.2301 26.397 25.9504 26.5116 25.6914C26.6262 25.4324 26.7924 25.1994 26.9999 25.0066C27.3643 24.6397 27.8505 24.4191 28.3666 24.3866C28.4933 24.3734 28.6106 24.3135 28.6956 24.2187C28.7806 24.1238 28.8273 24.0007 28.8266 23.8733C28.8195 23.2037 29.0784 22.5587 29.5466 22.08C30.0379 21.6035 30.6955 21.337 31.3799 21.337C32.0644 21.337 32.7219 21.6035 33.2133 22.08C33.2678 22.1346 33.3191 22.1925 33.3666 22.2533C33.4237 22.325 33.4989 22.3802 33.5845 22.413C33.6701 22.4458 33.7629 22.4551 33.8533 22.44C34.0554 22.4008 34.2607 22.3808 34.4666 22.38C35.0568 22.373 35.6374 22.5302 36.1436 22.8339C36.6498 23.1376 37.0616 23.5759 37.3333 24.1C37.5641 24.5375 37.6832 25.0253 37.6799 25.52C37.6756 25.9376 37.589 26.3502 37.4252 26.7344C37.2613 27.1185 37.0234 27.4667 36.725 27.7589C36.4266 28.0511 36.0736 28.2816 35.6861 28.4374C35.2986 28.5931 34.8842 28.671 34.4666 28.6666Z" fill="white"/>
</g>
<defs>
<filter id="filter0_d_1634_6338" x="0" y="0" width="64" height="64" filterUnits="userSpaceOnUse" color-interpolation-filters="sRGB">
<feFlood flood-opacity="0" result="BackgroundImageFix"/>
<feColorMatrix in="SourceAlpha" type="matrix" values="0 0 0 0 0 0 0 0 0 0 0 0 0 0 0 0 0 0 127 0" result="hardAlpha"/>
<feOffset dy="7"/>
<feGaussianBlur stdDeviation="10"/>
<feColorMatrix type="matrix" values="0 0 0 0 0 0 0 0 0 0 0 0 0 0 0 0 0 0 0.07 0"/>
<feBlend mode="normal" in2="BackgroundImageFix" result="effect1_dropShadow_1634_6338"/>
<feBlend mode="normal" in="SourceGraphic" in2="effect1_dropShadow_1634_6338" result="shape"/>
</filter>
<clipPath id="clip0_1634_6338">
<rect width="16" height="16" fill="white" transform="translate(24 17)"/>
</clipPath>
</defs>
</svg>
