<svg width="317" height="216" viewBox="0 0 317 216" fill="none" xmlns="http://www.w3.org/2000/svg">
<g filter="url(#filter0_d_1450_9998)">
<rect x="14" y="8" width="285" height="183.773" rx="10" fill="#00579A"/>
</g>
<path opacity="0.05" d="M14 23.0615C14 15.8216 21.4548 10.981 28.0684 13.9265L121.917 55.7235L32.2082 184.636C26.6154 192.673 14 188.715 14 178.924V23.0615Z" fill="white"/>
<path opacity="0.05" d="M180.178 8C187.395 8 192.235 15.4117 189.334 22.0199L148.17 115.784L21.2271 26.1694C13.2564 20.5426 17.2376 8 26.9943 8L180.178 8Z" fill="white"/>
<path d="M239.032 162.48L242.08 169.956L245.116 162.48H245.992L242.464 171H241.696L238.156 162.48H239.032ZM245.919 169.2C245.919 168.816 246.031 168.484 246.255 168.204C246.479 167.916 246.787 167.692 247.179 167.532C247.579 167.372 248.039 167.292 248.559 167.292C248.863 167.292 249.179 167.32 249.507 167.376C249.835 167.424 250.127 167.492 250.383 167.58V167.052C250.383 166.524 250.227 166.104 249.915 165.792C249.603 165.48 249.171 165.324 248.619 165.324C248.291 165.324 247.963 165.388 247.635 165.516C247.307 165.636 246.967 165.816 246.615 166.056L246.303 165.48C246.711 165.2 247.111 164.992 247.503 164.856C247.895 164.712 248.295 164.64 248.703 164.64C249.471 164.64 250.079 164.86 250.527 165.3C250.975 165.74 251.199 166.348 251.199 167.124V170.016C251.199 170.232 251.299 170.344 251.499 170.352V171C251.323 171.024 251.199 171.032 251.127 171.024C250.927 171.016 250.775 170.952 250.671 170.832C250.567 170.712 250.511 170.584 250.503 170.448L250.491 169.992C250.211 170.352 249.847 170.632 249.399 170.832C248.951 171.024 248.495 171.12 248.031 171.12C247.623 171.12 247.259 171.036 246.939 170.868C246.619 170.692 246.367 170.46 246.183 170.172C246.007 169.876 245.919 169.552 245.919 169.2ZM250.107 169.68C250.291 169.464 250.383 169.264 250.383 169.08V168.168C249.831 167.952 249.255 167.844 248.655 167.844C248.071 167.844 247.599 167.96 247.239 168.192C246.879 168.424 246.699 168.74 246.699 169.14C246.699 169.484 246.831 169.796 247.095 170.076C247.367 170.356 247.743 170.496 248.223 170.496C248.615 170.496 248.979 170.42 249.315 170.268C249.659 170.116 249.923 169.92 250.107 169.68ZM252.999 162.24H253.815V169.584C253.815 169.896 253.867 170.1 253.971 170.196C254.083 170.292 254.223 170.34 254.391 170.34C254.535 170.34 254.679 170.324 254.823 170.292C254.975 170.26 255.099 170.228 255.195 170.196L255.339 170.856C255.187 170.92 254.999 170.972 254.775 171.012C254.559 171.052 254.371 171.072 254.211 171.072C253.843 171.072 253.547 170.964 253.323 170.748C253.107 170.532 252.999 170.236 252.999 169.86V162.24ZM256.232 163.44V162.24H257.048V163.44H256.232ZM256.232 171V164.748H257.048V171H256.232ZM258.425 167.892C258.425 167.3 258.545 166.76 258.785 166.272C259.033 165.776 259.373 165.38 259.805 165.084C260.237 164.788 260.729 164.64 261.281 164.64C261.801 164.64 262.265 164.78 262.673 165.06C263.089 165.332 263.413 165.664 263.645 166.056V162.24H264.461V170.016C264.461 170.232 264.557 170.344 264.749 170.352V171C264.589 171.024 264.465 171.032 264.377 171.024C264.201 171.016 264.049 170.952 263.921 170.832C263.801 170.704 263.741 170.56 263.741 170.4V169.788C263.493 170.196 263.157 170.52 262.733 170.76C262.309 171 261.869 171.12 261.413 171.12C260.981 171.12 260.581 171.032 260.213 170.856C259.845 170.68 259.525 170.44 259.253 170.136C258.989 169.832 258.785 169.488 258.641 169.104C258.497 168.712 258.425 168.308 258.425 167.892ZM263.645 168.852V166.92C263.541 166.632 263.373 166.372 263.141 166.14C262.909 165.9 262.645 165.712 262.349 165.576C262.061 165.432 261.773 165.36 261.485 165.36C261.037 165.36 260.645 165.484 260.309 165.732C259.981 165.972 259.725 166.288 259.541 166.68C259.357 167.064 259.265 167.468 259.265 167.892C259.265 168.34 259.365 168.756 259.565 169.14C259.773 169.524 260.053 169.832 260.405 170.064C260.757 170.288 261.153 170.4 261.593 170.4C261.865 170.4 262.149 170.332 262.445 170.196C262.749 170.052 263.013 169.864 263.237 169.632C263.469 169.4 263.605 169.14 263.645 168.852Z" fill="white"/>
<path d="M241.6 152.108C240.584 152.108 239.808 151.736 239.272 150.992C238.744 150.24 238.48 149.148 238.48 147.716C238.48 146.308 238.744 145.232 239.272 144.488C239.808 143.744 240.584 143.372 241.6 143.372C242.616 143.372 243.388 143.744 243.916 144.488C244.452 145.224 244.72 146.3 244.72 147.716C244.72 149.14 244.452 150.228 243.916 150.98C243.388 151.732 242.616 152.108 241.6 152.108ZM241.6 150.896C242.152 150.896 242.552 150.644 242.8 150.14C243.056 149.628 243.184 148.82 243.184 147.716C243.184 146.628 243.056 145.836 242.8 145.34C242.552 144.836 242.152 144.584 241.6 144.584C241.048 144.584 240.644 144.836 240.388 145.34C240.14 145.836 240.016 146.628 240.016 147.716C240.016 148.82 240.14 149.628 240.388 150.14C240.644 150.644 241.048 150.896 241.6 150.896ZM249.323 146.516C249.827 146.516 250.275 146.632 250.667 146.864C251.067 147.096 251.379 147.42 251.603 147.836C251.827 148.252 251.939 148.728 251.939 149.264C251.939 149.808 251.815 150.296 251.567 150.728C251.327 151.16 250.987 151.5 250.547 151.748C250.115 151.988 249.623 152.108 249.071 152.108C247.991 152.108 247.159 151.744 246.575 151.016C245.991 150.28 245.699 149.236 245.699 147.884C245.699 146.94 245.835 146.128 246.107 145.448C246.387 144.768 246.787 144.248 247.307 143.888C247.835 143.528 248.459 143.348 249.179 143.348C249.691 143.348 250.187 143.436 250.667 143.612C251.155 143.78 251.579 144.024 251.939 144.344L251.411 145.472C250.659 144.88 249.935 144.584 249.239 144.584C248.607 144.584 248.119 144.852 247.775 145.388C247.431 145.924 247.251 146.692 247.235 147.692C247.419 147.332 247.699 147.048 248.075 146.84C248.451 146.624 248.867 146.516 249.323 146.516ZM248.999 150.884C249.439 150.884 249.791 150.74 250.055 150.452C250.327 150.164 250.463 149.784 250.463 149.312C250.463 148.84 250.327 148.464 250.055 148.184C249.791 147.896 249.435 147.752 248.987 147.752C248.539 147.752 248.175 147.896 247.895 148.184C247.615 148.472 247.475 148.848 247.475 149.312C247.475 149.776 247.615 150.156 247.895 150.452C248.183 150.74 248.551 150.884 248.999 150.884ZM255.384 152.708L258.492 142.964H259.776L256.644 152.708H255.384ZM269.35 150.74V152H263.614V150.86L266.518 147.728C266.862 147.352 267.114 147.008 267.274 146.696C267.434 146.384 267.514 146.076 267.514 145.772C267.514 145.38 267.398 145.084 267.166 144.884C266.942 144.684 266.618 144.584 266.194 144.584C265.442 144.584 264.67 144.88 263.878 145.472L263.362 144.344C263.698 144.04 264.13 143.8 264.658 143.624C265.186 143.44 265.718 143.348 266.254 143.348C267.11 143.348 267.786 143.56 268.282 143.984C268.786 144.4 269.038 144.964 269.038 145.676C269.038 146.164 268.93 146.624 268.714 147.056C268.506 147.488 268.154 147.972 267.658 148.508L265.558 150.74H269.35ZM276.557 150.74V152H270.821V150.86L273.725 147.728C274.069 147.352 274.321 147.008 274.481 146.696C274.641 146.384 274.721 146.076 274.721 145.772C274.721 145.38 274.605 145.084 274.373 144.884C274.149 144.684 273.825 144.584 273.401 144.584C272.649 144.584 271.877 144.88 271.085 145.472L270.569 144.344C270.905 144.04 271.337 143.8 271.865 143.624C272.393 143.44 272.925 143.348 273.461 143.348C274.317 143.348 274.993 143.56 275.489 143.984C275.993 144.4 276.245 144.964 276.245 145.676C276.245 146.164 276.137 146.624 275.921 147.056C275.713 147.488 275.361 147.972 274.865 148.508L272.765 150.74H276.557Z" fill="white"/>
<path d="M38.504 166.68C38.504 166.168 38.592 165.66 38.768 165.156C38.952 164.652 39.216 164.196 39.56 163.788C39.904 163.372 40.328 163.044 40.832 162.804C41.336 162.556 41.908 162.432 42.548 162.432C43.3 162.432 43.948 162.608 44.492 162.96C45.036 163.304 45.436 163.748 45.692 164.292L45.032 164.7C44.848 164.324 44.616 164.028 44.336 163.812C44.056 163.588 43.756 163.428 43.436 163.332C43.124 163.236 42.812 163.188 42.5 163.188C41.988 163.188 41.536 163.292 41.144 163.5C40.752 163.7 40.42 163.972 40.148 164.316C39.884 164.66 39.684 165.04 39.548 165.456C39.412 165.872 39.344 166.296 39.344 166.728C39.344 167.2 39.424 167.652 39.584 168.084C39.744 168.508 39.968 168.888 40.256 169.224C40.544 169.56 40.88 169.828 41.264 170.028C41.656 170.22 42.08 170.316 42.536 170.316C42.856 170.316 43.184 170.26 43.52 170.148C43.856 170.036 44.168 169.864 44.456 169.632C44.744 169.4 44.98 169.1 45.164 168.732L45.86 169.092C45.676 169.516 45.4 169.876 45.032 170.172C44.672 170.468 44.264 170.692 43.808 170.844C43.36 170.996 42.92 171.072 42.488 171.072C41.904 171.072 41.368 170.948 40.88 170.7C40.392 170.444 39.968 170.108 39.608 169.692C39.256 169.268 38.984 168.796 38.792 168.276C38.6 167.748 38.504 167.216 38.504 166.68ZM46.6226 169.2C46.6226 168.816 46.7346 168.484 46.9586 168.204C47.1826 167.916 47.4906 167.692 47.8826 167.532C48.2826 167.372 48.7426 167.292 49.2626 167.292C49.5666 167.292 49.8826 167.32 50.2106 167.376C50.5386 167.424 50.8306 167.492 51.0866 167.58V167.052C51.0866 166.524 50.9306 166.104 50.6186 165.792C50.3066 165.48 49.8746 165.324 49.3226 165.324C48.9946 165.324 48.6666 165.388 48.3386 165.516C48.0106 165.636 47.6706 165.816 47.3186 166.056L47.0066 165.48C47.4146 165.2 47.8146 164.992 48.2066 164.856C48.5986 164.712 48.9986 164.64 49.4066 164.64C50.1746 164.64 50.7826 164.86 51.2306 165.3C51.6786 165.74 51.9026 166.348 51.9026 167.124V170.016C51.9026 170.232 52.0026 170.344 52.2026 170.352V171C52.0266 171.024 51.9026 171.032 51.8306 171.024C51.6306 171.016 51.4786 170.952 51.3746 170.832C51.2706 170.712 51.2146 170.584 51.2066 170.448L51.1946 169.992C50.9146 170.352 50.5506 170.632 50.1026 170.832C49.6546 171.024 49.1986 171.12 48.7346 171.12C48.3266 171.12 47.9626 171.036 47.6426 170.868C47.3226 170.692 47.0706 170.46 46.8866 170.172C46.7106 169.876 46.6226 169.552 46.6226 169.2ZM50.8106 169.68C50.9946 169.464 51.0866 169.264 51.0866 169.08V168.168C50.5346 167.952 49.9586 167.844 49.3586 167.844C48.7746 167.844 48.3026 167.96 47.9426 168.192C47.5826 168.424 47.4026 168.74 47.4026 169.14C47.4026 169.484 47.5346 169.796 47.7986 170.076C48.0706 170.356 48.4466 170.496 48.9266 170.496C49.3186 170.496 49.6826 170.42 50.0186 170.268C50.3626 170.116 50.6266 169.92 50.8106 169.68ZM56.7856 165.468C56.2416 165.484 55.7616 165.636 55.3456 165.924C54.9376 166.212 54.6496 166.608 54.4816 167.112V171H53.6656V164.748H54.4336V166.248C54.6496 165.808 54.9336 165.452 55.2856 165.18C55.6456 164.908 56.0256 164.756 56.4256 164.724C56.5056 164.716 56.5736 164.712 56.6296 164.712C56.6856 164.712 56.7376 164.716 56.7856 164.724V165.468ZM57.2886 167.892C57.2886 167.3 57.4086 166.76 57.6486 166.272C57.8966 165.776 58.2366 165.38 58.6686 165.084C59.1006 164.788 59.5926 164.64 60.1446 164.64C60.6646 164.64 61.1286 164.78 61.5366 165.06C61.9526 165.332 62.2766 165.664 62.5086 166.056V162.24H63.3246V170.016C63.3246 170.232 63.4206 170.344 63.6126 170.352V171C63.4526 171.024 63.3286 171.032 63.2406 171.024C63.0646 171.016 62.9126 170.952 62.7846 170.832C62.6646 170.704 62.6046 170.56 62.6046 170.4V169.788C62.3566 170.196 62.0206 170.52 61.5966 170.76C61.1726 171 60.7326 171.12 60.2766 171.12C59.8446 171.12 59.4446 171.032 59.0766 170.856C58.7086 170.68 58.3886 170.44 58.1166 170.136C57.8526 169.832 57.6486 169.488 57.5046 169.104C57.3606 168.712 57.2886 168.308 57.2886 167.892ZM62.5086 168.852V166.92C62.4046 166.632 62.2366 166.372 62.0046 166.14C61.7726 165.9 61.5086 165.712 61.2126 165.576C60.9246 165.432 60.6366 165.36 60.3486 165.36C59.9006 165.36 59.5086 165.484 59.1726 165.732C58.8446 165.972 58.5886 166.288 58.4046 166.68C58.2206 167.064 58.1286 167.468 58.1286 167.892C58.1286 168.34 58.2286 168.756 58.4286 169.14C58.6366 169.524 58.9166 169.832 59.2686 170.064C59.6206 170.288 60.0166 170.4 60.4566 170.4C60.7286 170.4 61.0126 170.332 61.3086 170.196C61.6126 170.052 61.8766 169.864 62.1006 169.632C62.3326 169.4 62.4686 169.14 62.5086 168.852ZM70.4294 171H69.6134V167.508C69.6134 166.092 69.1334 165.384 68.1734 165.384C67.8614 165.384 67.5574 165.464 67.2614 165.624C66.9654 165.776 66.7014 165.988 66.4694 166.26C66.2454 166.524 66.0854 166.828 65.9894 167.172V171H65.1734V162.24H65.9894V166.164C66.2374 165.7 66.5814 165.332 67.0214 165.06C67.4694 164.78 67.9454 164.64 68.4494 164.64C68.9294 164.64 69.3134 164.756 69.6014 164.988C69.8894 165.212 70.0974 165.528 70.2254 165.936C70.3614 166.336 70.4294 166.804 70.4294 167.34V171ZM74.8335 171.12C74.2335 171.12 73.6975 170.972 73.2255 170.676C72.7615 170.38 72.3975 169.988 72.1335 169.5C71.8695 169.004 71.7375 168.468 71.7375 167.892C71.7375 167.308 71.8695 166.772 72.1335 166.284C72.4055 165.788 72.7735 165.392 73.2375 165.096C73.7095 164.792 74.2415 164.64 74.8335 164.64C75.4335 164.64 75.9655 164.792 76.4295 165.096C76.9015 165.392 77.2695 165.788 77.5335 166.284C77.8055 166.772 77.9415 167.308 77.9415 167.892C77.9415 168.468 77.8095 169.004 77.5455 169.5C77.2815 169.988 76.9135 170.38 76.4415 170.676C75.9775 170.972 75.4415 171.12 74.8335 171.12ZM72.5655 167.904C72.5655 168.368 72.6655 168.792 72.8655 169.176C73.0735 169.552 73.3495 169.852 73.6935 170.076C74.0375 170.292 74.4175 170.4 74.8335 170.4C75.2495 170.4 75.6295 170.288 75.9735 170.064C76.3175 169.84 76.5935 169.536 76.8015 169.152C77.0095 168.768 77.1135 168.344 77.1135 167.88C77.1135 167.416 77.0095 166.992 76.8015 166.608C76.5935 166.224 76.3175 165.92 75.9735 165.696C75.6295 165.472 75.2495 165.36 74.8335 165.36C74.4255 165.36 74.0495 165.476 73.7055 165.708C73.3615 165.932 73.0855 166.236 72.8775 166.62C72.6695 167.004 72.5655 167.432 72.5655 167.904ZM79.3423 162.24H80.1583V169.584C80.1583 169.896 80.2103 170.1 80.3143 170.196C80.4263 170.292 80.5663 170.34 80.7343 170.34C80.8783 170.34 81.0223 170.324 81.1663 170.292C81.3183 170.26 81.4423 170.228 81.5383 170.196L81.6823 170.856C81.5303 170.92 81.3423 170.972 81.1183 171.012C80.9023 171.052 80.7143 171.072 80.5543 171.072C80.1863 171.072 79.8903 170.964 79.6663 170.748C79.4503 170.532 79.3423 170.236 79.3423 169.86V162.24ZM82.1558 167.892C82.1558 167.3 82.2758 166.76 82.5158 166.272C82.7638 165.776 83.1038 165.38 83.5358 165.084C83.9678 164.788 84.4598 164.64 85.0118 164.64C85.5318 164.64 85.9958 164.78 86.4038 165.06C86.8198 165.332 87.1438 165.664 87.3758 166.056V162.24H88.1918V170.016C88.1918 170.232 88.2878 170.344 88.4798 170.352V171C88.3198 171.024 88.1958 171.032 88.1078 171.024C87.9318 171.016 87.7798 170.952 87.6518 170.832C87.5318 170.704 87.4718 170.56 87.4718 170.4V169.788C87.2238 170.196 86.8878 170.52 86.4638 170.76C86.0398 171 85.5998 171.12 85.1438 171.12C84.7118 171.12 84.3118 171.032 83.9438 170.856C83.5758 170.68 83.2558 170.44 82.9838 170.136C82.7198 169.832 82.5158 169.488 82.3718 169.104C82.2278 168.712 82.1558 168.308 82.1558 167.892ZM87.3758 168.852V166.92C87.2718 166.632 87.1038 166.372 86.8718 166.14C86.6398 165.9 86.3758 165.712 86.0798 165.576C85.7918 165.432 85.5038 165.36 85.2158 165.36C84.7678 165.36 84.3758 165.484 84.0398 165.732C83.7118 165.972 83.4558 166.288 83.2718 166.68C83.0878 167.064 82.9958 167.468 82.9958 167.892C82.9958 168.34 83.0958 168.756 83.2958 169.14C83.5038 169.524 83.7838 169.832 84.1358 170.064C84.4878 170.288 84.8838 170.4 85.3238 170.4C85.5958 170.4 85.8798 170.332 86.1758 170.196C86.4798 170.052 86.7438 169.864 86.9678 169.632C87.1998 169.4 87.3358 169.14 87.3758 168.852ZM92.7406 171.12C92.1406 171.12 91.6046 170.972 91.1326 170.676C90.6606 170.38 90.2886 169.984 90.0166 169.488C89.7446 168.992 89.6086 168.448 89.6086 167.856C89.6086 167.272 89.7406 166.736 90.0046 166.248C90.2766 165.76 90.6486 165.372 91.1206 165.084C91.5926 164.788 92.1286 164.64 92.7286 164.64C93.3446 164.64 93.8846 164.788 94.3486 165.084C94.8126 165.38 95.1726 165.772 95.4286 166.26C95.6926 166.74 95.8246 167.268 95.8246 167.844C95.8246 167.972 95.8206 168.08 95.8126 168.168H90.4606C90.5006 168.616 90.6286 169.016 90.8446 169.368C91.0606 169.712 91.3366 169.988 91.6726 170.196C92.0086 170.396 92.3766 170.496 92.7766 170.496C93.1846 170.496 93.5686 170.392 93.9286 170.184C94.2886 169.976 94.5446 169.704 94.6966 169.368L95.4046 169.56C95.2766 169.864 95.0766 170.136 94.8046 170.376C94.5406 170.608 94.2326 170.792 93.8806 170.928C93.5286 171.056 93.1486 171.12 92.7406 171.12ZM90.4366 167.58H95.0566C95.0246 167.132 94.9006 166.736 94.6846 166.392C94.4686 166.04 94.1926 165.768 93.8566 165.576C93.5206 165.376 93.1486 165.276 92.7406 165.276C92.3326 165.276 91.9606 165.376 91.6246 165.576C91.2886 165.768 91.0126 166.04 90.7966 166.392C90.5886 166.736 90.4686 167.132 90.4366 167.58ZM100.204 165.468C99.6596 165.484 99.1796 165.636 98.7636 165.924C98.3556 166.212 98.0676 166.608 97.8996 167.112V171H97.0836V164.748H97.8516V166.248C98.0676 165.808 98.3516 165.452 98.7036 165.18C99.0636 164.908 99.4436 164.756 99.8436 164.724C99.9236 164.716 99.9916 164.712 100.048 164.712C100.104 164.712 100.156 164.716 100.204 164.724V165.468Z" fill="white"/>
<path d="M47.252 143.456V152H45.884V146.696L43.616 152H42.596L40.316 146.756V152H38.948V143.456H40.172L43.112 150.14L46.028 143.456H47.252ZM54.8073 145.94V152H53.3313V151.028C53.1473 151.364 52.8833 151.628 52.5393 151.82C52.1953 152.004 51.8033 152.096 51.3633 152.096C50.8353 152.096 50.3673 151.968 49.9593 151.712C49.5513 151.456 49.2353 151.092 49.0113 150.62C48.7873 150.148 48.6753 149.6 48.6753 148.976C48.6753 148.352 48.7873 147.8 49.0113 147.32C49.2433 146.832 49.5633 146.456 49.9713 146.192C50.3793 145.92 50.8433 145.784 51.3633 145.784C51.8033 145.784 52.1953 145.88 52.5393 146.072C52.8833 146.256 53.1473 146.516 53.3313 146.852V145.94H54.8073ZM51.7713 150.92C52.2673 150.92 52.6513 150.748 52.9233 150.404C53.1953 150.06 53.3313 149.576 53.3313 148.952C53.3313 148.312 53.1953 147.82 52.9233 147.476C52.6513 147.132 52.2633 146.96 51.7593 146.96C51.2633 146.96 50.8753 147.14 50.5953 147.5C50.3233 147.852 50.1873 148.344 50.1873 148.976C50.1873 149.6 50.3233 150.08 50.5953 150.416C50.8753 150.752 51.2673 150.92 51.7713 150.92ZM58.349 147.068V149.78C58.349 150.492 58.681 150.848 59.345 150.848C59.529 150.848 59.729 150.816 59.945 150.752V151.94C59.681 152.036 59.361 152.084 58.985 152.084C58.297 152.084 57.769 151.892 57.401 151.508C57.033 151.124 56.849 150.572 56.849 149.852V147.068H55.685V145.94H56.849V144.464L58.349 143.96V145.94H59.957V147.068H58.349ZM62.8138 147.068V149.78C62.8138 150.492 63.1458 150.848 63.8098 150.848C63.9938 150.848 64.1938 150.816 64.4098 150.752V151.94C64.1458 152.036 63.8258 152.084 63.4498 152.084C62.7618 152.084 62.2338 151.892 61.8658 151.508C61.4978 151.124 61.3138 150.572 61.3138 149.852V147.068H60.1498V145.94H61.3138V144.464L62.8138 143.96V145.94H64.4218V147.068H62.8138ZM68.9207 145.784C70.3687 145.784 71.0927 146.616 71.0927 148.28V152H69.5927V148.352C69.5927 147.872 69.5007 147.524 69.3167 147.308C69.1327 147.084 68.8487 146.972 68.4647 146.972C68.0087 146.972 67.6407 147.12 67.3607 147.416C67.0807 147.704 66.9407 148.088 66.9407 148.568V152H65.4527V143.168H66.9407V146.816C67.1487 146.488 67.4247 146.236 67.7687 146.06C68.1127 145.876 68.4967 145.784 68.9207 145.784ZM77.9872 149.048H73.8112C73.8432 149.696 74.0032 150.176 74.2912 150.488C74.5872 150.792 75.0232 150.944 75.5992 150.944C76.2632 150.944 76.8792 150.728 77.4472 150.296L77.8792 151.328C77.5912 151.56 77.2352 151.748 76.8112 151.892C76.3952 152.028 75.9712 152.096 75.5392 152.096C74.5472 152.096 73.7672 151.816 73.1992 151.256C72.6312 150.696 72.3472 149.928 72.3472 148.952C72.3472 148.336 72.4712 147.788 72.7192 147.308C72.9672 146.828 73.3152 146.456 73.7632 146.192C74.2112 145.92 74.7192 145.784 75.2872 145.784C76.1192 145.784 76.7752 146.056 77.2552 146.6C77.7432 147.136 77.9872 147.876 77.9872 148.82V149.048ZM75.3232 146.864C74.9232 146.864 74.5952 146.984 74.3392 147.224C74.0912 147.456 73.9312 147.796 73.8592 148.244H76.6792C76.6312 147.788 76.4912 147.444 76.2592 147.212C76.0352 146.98 75.7232 146.864 75.3232 146.864ZM88.7999 145.94L86.4239 152H85.1159L83.6159 148.028L82.1519 152H80.8319L78.4559 145.94H79.9919L81.5519 150.212L83.1239 145.94H84.2039L85.7759 150.248L87.3359 145.94H88.7999ZM100.347 143.456V152H99.1947L94.5867 146.012V152H93.1467V143.456H94.2987L98.8947 149.432V143.456H100.347ZM107.953 145.94V151.808C107.953 152.752 107.693 153.468 107.173 153.956C106.653 154.444 105.889 154.688 104.881 154.688C103.945 154.688 103.121 154.492 102.409 154.1L102.649 152.96C103.385 153.344 104.117 153.536 104.845 153.536C105.925 153.536 106.465 153 106.465 151.928V150.728C106.281 151.056 106.013 151.324 105.661 151.532C105.309 151.732 104.913 151.832 104.473 151.832C103.945 151.832 103.473 151.708 103.057 151.46C102.649 151.204 102.329 150.848 102.097 150.392C101.873 149.928 101.761 149.4 101.761 148.808C101.761 148.216 101.873 147.692 102.097 147.236C102.329 146.772 102.649 146.416 103.057 146.168C103.473 145.912 103.945 145.784 104.473 145.784C104.921 145.784 105.317 145.88 105.661 146.072C106.013 146.256 106.281 146.516 106.465 146.852V145.94H107.953ZM104.869 150.656C105.365 150.656 105.753 150.492 106.033 150.164C106.321 149.836 106.465 149.384 106.465 148.808C106.465 148.232 106.325 147.78 106.045 147.452C105.765 147.124 105.373 146.96 104.869 146.96C104.373 146.96 103.981 147.124 103.693 147.452C103.413 147.78 103.273 148.232 103.273 148.808C103.273 149.384 103.413 149.836 103.693 150.164C103.981 150.492 104.373 150.656 104.869 150.656ZM115.094 145.94V152H113.63V151.064C113.438 151.4 113.182 151.656 112.862 151.832C112.542 152.008 112.174 152.096 111.758 152.096C110.278 152.096 109.538 151.264 109.538 149.6V145.94H111.026V149.612C111.026 150.052 111.114 150.376 111.29 150.584C111.474 150.792 111.754 150.896 112.13 150.896C112.57 150.896 112.922 150.752 113.186 150.464C113.45 150.176 113.582 149.792 113.582 149.312V145.94H115.094ZM122.458 145.94L119.638 152.408C119.318 153.16 118.91 153.708 118.414 154.052C117.918 154.396 117.306 154.624 116.578 154.736L116.242 153.584C116.81 153.456 117.234 153.292 117.514 153.092C117.802 152.9 118.034 152.612 118.21 152.228L118.402 151.784L115.882 145.94H117.454L119.194 150.296L120.97 145.94H122.458ZM128.436 149.048H124.26C124.292 149.696 124.452 150.176 124.74 150.488C125.036 150.792 125.472 150.944 126.048 150.944C126.712 150.944 127.328 150.728 127.896 150.296L128.328 151.328C128.04 151.56 127.684 151.748 127.26 151.892C126.844 152.028 126.42 152.096 125.988 152.096C124.996 152.096 124.216 151.816 123.648 151.256C123.08 150.696 122.796 149.928 122.796 148.952C122.796 148.336 122.92 147.788 123.168 147.308C123.416 146.828 123.764 146.456 124.212 146.192C124.66 145.92 125.168 145.784 125.736 145.784C126.568 145.784 127.224 146.056 127.704 146.6C128.192 147.136 128.436 147.876 128.436 148.82V149.048ZM125.772 146.864C125.372 146.864 125.044 146.984 124.788 147.224C124.54 147.456 124.38 147.796 124.308 148.244H127.128C127.08 147.788 126.94 147.444 126.708 147.212C126.484 146.98 126.172 146.864 125.772 146.864ZM133.175 145.784C134.623 145.784 135.347 146.616 135.347 148.28V152H133.847V148.352C133.847 147.872 133.755 147.524 133.571 147.308C133.387 147.084 133.103 146.972 132.719 146.972C132.263 146.972 131.895 147.12 131.615 147.416C131.335 147.704 131.195 148.088 131.195 148.568V152H129.707V147.656C129.707 147.016 129.675 146.444 129.611 145.94H131.015L131.123 146.936C131.331 146.568 131.611 146.284 131.963 146.084C132.323 145.884 132.727 145.784 133.175 145.784Z" fill="white"/>
<path d="M38.504 106.68C38.504 106.168 38.592 105.66 38.768 105.156C38.952 104.652 39.216 104.196 39.56 103.788C39.904 103.372 40.328 103.044 40.832 102.804C41.336 102.556 41.908 102.432 42.548 102.432C43.3 102.432 43.948 102.608 44.492 102.96C45.036 103.304 45.436 103.748 45.692 104.292L45.032 104.7C44.848 104.324 44.616 104.028 44.336 103.812C44.056 103.588 43.756 103.428 43.436 103.332C43.124 103.236 42.812 103.188 42.5 103.188C41.988 103.188 41.536 103.292 41.144 103.5C40.752 103.7 40.42 103.972 40.148 104.316C39.884 104.66 39.684 105.04 39.548 105.456C39.412 105.872 39.344 106.296 39.344 106.728C39.344 107.2 39.424 107.652 39.584 108.084C39.744 108.508 39.968 108.888 40.256 109.224C40.544 109.56 40.88 109.828 41.264 110.028C41.656 110.22 42.08 110.316 42.536 110.316C42.856 110.316 43.184 110.26 43.52 110.148C43.856 110.036 44.168 109.864 44.456 109.632C44.744 109.4 44.98 109.1 45.164 108.732L45.86 109.092C45.676 109.516 45.4 109.876 45.032 110.172C44.672 110.468 44.264 110.692 43.808 110.844C43.36 110.996 42.92 111.072 42.488 111.072C41.904 111.072 41.368 110.948 40.88 110.7C40.392 110.444 39.968 110.108 39.608 109.692C39.256 109.268 38.984 108.796 38.792 108.276C38.6 107.748 38.504 107.216 38.504 106.68ZM46.6226 109.2C46.6226 108.816 46.7346 108.484 46.9586 108.204C47.1826 107.916 47.4906 107.692 47.8826 107.532C48.2826 107.372 48.7426 107.292 49.2626 107.292C49.5666 107.292 49.8826 107.32 50.2106 107.376C50.5386 107.424 50.8306 107.492 51.0866 107.58V107.052C51.0866 106.524 50.9306 106.104 50.6186 105.792C50.3066 105.48 49.8746 105.324 49.3226 105.324C48.9946 105.324 48.6666 105.388 48.3386 105.516C48.0106 105.636 47.6706 105.816 47.3186 106.056L47.0066 105.48C47.4146 105.2 47.8146 104.992 48.2066 104.856C48.5986 104.712 48.9986 104.64 49.4066 104.64C50.1746 104.64 50.7826 104.86 51.2306 105.3C51.6786 105.74 51.9026 106.348 51.9026 107.124V110.016C51.9026 110.232 52.0026 110.344 52.2026 110.352V111C52.0266 111.024 51.9026 111.032 51.8306 111.024C51.6306 111.016 51.4786 110.952 51.3746 110.832C51.2706 110.712 51.2146 110.584 51.2066 110.448L51.1946 109.992C50.9146 110.352 50.5506 110.632 50.1026 110.832C49.6546 111.024 49.1986 111.12 48.7346 111.12C48.3266 111.12 47.9626 111.036 47.6426 110.868C47.3226 110.692 47.0706 110.46 46.8866 110.172C46.7106 109.876 46.6226 109.552 46.6226 109.2ZM50.8106 109.68C50.9946 109.464 51.0866 109.264 51.0866 109.08V108.168C50.5346 107.952 49.9586 107.844 49.3586 107.844C48.7746 107.844 48.3026 107.96 47.9426 108.192C47.5826 108.424 47.4026 108.74 47.4026 109.14C47.4026 109.484 47.5346 109.796 47.7986 110.076C48.0706 110.356 48.4466 110.496 48.9266 110.496C49.3186 110.496 49.6826 110.42 50.0186 110.268C50.3626 110.116 50.6266 109.92 50.8106 109.68ZM56.7856 105.468C56.2416 105.484 55.7616 105.636 55.3456 105.924C54.9376 106.212 54.6496 106.608 54.4816 107.112V111H53.6656V104.748H54.4336V106.248C54.6496 105.808 54.9336 105.452 55.2856 105.18C55.6456 104.908 56.0256 104.756 56.4256 104.724C56.5056 104.716 56.5736 104.712 56.6296 104.712C56.6856 104.712 56.7376 104.716 56.7856 104.724V105.468ZM57.2886 107.892C57.2886 107.3 57.4086 106.76 57.6486 106.272C57.8966 105.776 58.2366 105.38 58.6686 105.084C59.1006 104.788 59.5926 104.64 60.1446 104.64C60.6646 104.64 61.1286 104.78 61.5366 105.06C61.9526 105.332 62.2766 105.664 62.5086 106.056V102.24H63.3246V110.016C63.3246 110.232 63.4206 110.344 63.6126 110.352V111C63.4526 111.024 63.3286 111.032 63.2406 111.024C63.0646 111.016 62.9126 110.952 62.7846 110.832C62.6646 110.704 62.6046 110.56 62.6046 110.4V109.788C62.3566 110.196 62.0206 110.52 61.5966 110.76C61.1726 111 60.7326 111.12 60.2766 111.12C59.8446 111.12 59.4446 111.032 59.0766 110.856C58.7086 110.68 58.3886 110.44 58.1166 110.136C57.8526 109.832 57.6486 109.488 57.5046 109.104C57.3606 108.712 57.2886 108.308 57.2886 107.892ZM62.5086 108.852V106.92C62.4046 106.632 62.2366 106.372 62.0046 106.14C61.7726 105.9 61.5086 105.712 61.2126 105.576C60.9246 105.432 60.6366 105.36 60.3486 105.36C59.9006 105.36 59.5086 105.484 59.1726 105.732C58.8446 105.972 58.5886 106.288 58.4046 106.68C58.2206 107.064 58.1286 107.468 58.1286 107.892C58.1286 108.34 58.2286 108.756 58.4286 109.14C58.6366 109.524 58.9166 109.832 59.2686 110.064C59.6206 110.288 60.0166 110.4 60.4566 110.4C60.7286 110.4 61.0126 110.332 61.3086 110.196C61.6126 110.052 61.8766 109.864 62.1006 109.632C62.3326 109.4 62.4686 109.14 62.5086 108.852ZM73.488 111H72.672V107.508C72.672 106.772 72.56 106.236 72.336 105.9C72.12 105.556 71.784 105.384 71.328 105.384C71.008 105.384 70.692 105.464 70.38 105.624C70.068 105.776 69.792 105.988 69.552 106.26C69.32 106.524 69.152 106.828 69.048 107.172V111H68.232V104.748H68.976V106.164C69.224 105.708 69.588 105.34 70.068 105.06C70.548 104.78 71.068 104.64 71.628 104.64C72.092 104.64 72.46 104.752 72.732 104.976C73.004 105.192 73.196 105.504 73.308 105.912C73.428 106.312 73.488 106.788 73.488 107.34V111ZM75.1681 108.42V104.748H75.9841V108.276C75.9841 109.692 76.4681 110.4 77.4361 110.4C77.9161 110.4 78.3641 110.244 78.7801 109.932C79.2041 109.62 79.5081 109.204 79.6921 108.684V104.748H80.5081V110.016C80.5081 110.232 80.6041 110.344 80.7961 110.352V111C80.7001 111.016 80.6241 111.024 80.5681 111.024C80.5201 111.024 80.4681 111.024 80.4121 111.024C80.2441 111.008 80.1001 110.944 79.9801 110.832C79.8681 110.72 79.8121 110.584 79.8121 110.424L79.7881 109.584C79.5161 110.072 79.1441 110.452 78.6721 110.724C78.2081 110.988 77.7041 111.12 77.1601 111.12C75.8321 111.12 75.1681 110.22 75.1681 108.42ZM91.6531 111H90.8371V107.508C90.8371 106.788 90.7211 106.256 90.4891 105.912C90.2571 105.56 89.9131 105.384 89.4571 105.384C88.9771 105.384 88.5531 105.552 88.1851 105.888C87.8171 106.224 87.5571 106.656 87.4051 107.184V111H86.5891V107.508C86.5891 106.772 86.4731 106.236 86.2411 105.9C86.0171 105.556 85.6771 105.384 85.2211 105.384C84.7491 105.384 84.3251 105.548 83.9491 105.876C83.5811 106.204 83.3211 106.636 83.1691 107.172V111H82.3531V104.748H83.0971V106.164C83.3531 105.684 83.6891 105.312 84.1051 105.048C84.5211 104.776 84.9811 104.64 85.4851 104.64C86.0051 104.64 86.4251 104.792 86.7451 105.096C87.0651 105.392 87.2611 105.776 87.3331 106.248C87.9091 105.176 88.7131 104.64 89.7451 104.64C90.4491 104.64 90.9411 104.888 91.2211 105.384C91.5091 105.872 91.6531 106.524 91.6531 107.34V111ZM96.4405 111.12C95.9525 111.12 95.5005 110.996 95.0845 110.748C94.6685 110.492 94.3445 110.172 94.1125 109.788V111H93.3805V102.24H94.1965V106.056C94.4765 105.632 94.8125 105.292 95.2045 105.036C95.5965 104.772 96.0525 104.64 96.5725 104.64C97.0125 104.64 97.4045 104.732 97.7485 104.916C98.1005 105.1 98.4005 105.348 98.6485 105.66C98.8965 105.964 99.0845 106.312 99.2125 106.704C99.3405 107.088 99.4045 107.484 99.4045 107.892C99.4045 108.476 99.2725 109.012 99.0085 109.5C98.7525 109.988 98.4005 110.38 97.9525 110.676C97.5045 110.972 97.0005 111.12 96.4405 111.12ZM96.2485 110.4C96.7045 110.4 97.1045 110.28 97.4485 110.04C97.8005 109.8 98.0765 109.492 98.2765 109.116C98.4765 108.732 98.5765 108.324 98.5765 107.892C98.5765 107.452 98.4805 107.04 98.2885 106.656C98.1045 106.272 97.8445 105.96 97.5085 105.72C97.1725 105.48 96.7845 105.36 96.3445 105.36C95.8565 105.36 95.4245 105.516 95.0485 105.828C94.6805 106.14 94.3965 106.504 94.1965 106.92V108.864C94.2365 109.152 94.3685 109.412 94.5925 109.644C94.8165 109.876 95.0805 110.06 95.3845 110.196C95.6885 110.332 95.9765 110.4 96.2485 110.4ZM103.487 111.12C102.887 111.12 102.351 110.972 101.879 110.676C101.407 110.38 101.035 109.984 100.763 109.488C100.491 108.992 100.355 108.448 100.355 107.856C100.355 107.272 100.487 106.736 100.751 106.248C101.023 105.76 101.395 105.372 101.867 105.084C102.339 104.788 102.875 104.64 103.475 104.64C104.091 104.64 104.631 104.788 105.095 105.084C105.559 105.38 105.919 105.772 106.175 106.26C106.439 106.74 106.571 107.268 106.571 107.844C106.571 107.972 106.567 108.08 106.559 108.168H101.207C101.247 108.616 101.375 109.016 101.591 109.368C101.807 109.712 102.083 109.988 102.419 110.196C102.755 110.396 103.123 110.496 103.523 110.496C103.931 110.496 104.315 110.392 104.675 110.184C105.035 109.976 105.291 109.704 105.443 109.368L106.151 109.56C106.023 109.864 105.823 110.136 105.551 110.376C105.287 110.608 104.979 110.792 104.627 110.928C104.275 111.056 103.895 111.12 103.487 111.12ZM101.183 107.58H105.803C105.771 107.132 105.647 106.736 105.431 106.392C105.215 106.04 104.939 105.768 104.603 105.576C104.267 105.376 103.895 105.276 103.487 105.276C103.079 105.276 102.707 105.376 102.371 105.576C102.035 105.768 101.759 106.04 101.543 106.392C101.335 106.736 101.215 107.132 101.183 107.58ZM110.95 105.468C110.406 105.484 109.926 105.636 109.51 105.924C109.102 106.212 108.814 106.608 108.646 107.112V111H107.83V104.748H108.598V106.248C108.814 105.808 109.098 105.452 109.45 105.18C109.81 104.908 110.19 104.756 110.59 104.724C110.67 104.716 110.738 104.712 110.794 104.712C110.85 104.712 110.902 104.716 110.95 104.724V105.468Z" fill="#F2F7F8"/>
<path d="M39.232 85.632L40.704 83.824L38.432 83.2L38.88 81.856L41.056 82.688L40.944 80.352H42.352L42.24 82.672L44.432 81.856L44.864 83.2L42.608 83.808L44.08 85.632L42.928 86.464L41.648 84.512L40.368 86.464L39.232 85.632ZM46.5445 85.632L48.0165 83.824L45.7445 83.2L46.1925 81.856L48.3685 82.688L48.2565 80.352H49.6645L49.5525 82.672L51.7445 81.856L52.1765 83.2L49.9205 83.808L51.3925 85.632L50.2405 86.464L48.9605 84.512L47.6805 86.464L46.5445 85.632ZM53.857 85.632L55.329 83.824L53.057 83.2L53.505 81.856L55.681 82.688L55.569 80.352H56.977L56.865 82.672L59.057 81.856L59.489 83.2L57.233 83.808L58.705 85.632L57.553 86.464L56.273 84.512L54.993 86.464L53.857 85.632ZM61.1695 85.632L62.6415 83.824L60.3695 83.2L60.8175 81.856L62.9935 82.688L62.8815 80.352H64.2895L64.1775 82.672L66.3695 81.856L66.8015 83.2L64.5455 83.808L66.0175 85.632L64.8655 86.464L63.5855 84.512L62.3055 86.464L61.1695 85.632ZM77.2633 85.632L78.7353 83.824L76.4633 83.2L76.9113 81.856L79.0873 82.688L78.9753 80.352H80.3833L80.2713 82.672L82.4633 81.856L82.8953 83.2L80.6393 83.808L82.1113 85.632L80.9593 86.464L79.6793 84.512L78.3993 86.464L77.2633 85.632ZM84.5758 85.632L86.0478 83.824L83.7758 83.2L84.2238 81.856L86.3998 82.688L86.2878 80.352H87.6958L87.5838 82.672L89.7758 81.856L90.2078 83.2L87.9518 83.808L89.4238 85.632L88.2718 86.464L86.9918 84.512L85.7118 86.464L84.5758 85.632ZM91.8883 85.632L93.3603 83.824L91.0883 83.2L91.5363 81.856L93.7123 82.688L93.6003 80.352H95.0083L94.8963 82.672L97.0883 81.856L97.5203 83.2L95.2643 83.808L96.7363 85.632L95.5843 86.464L94.3043 84.512L93.0243 86.464L91.8883 85.632ZM99.2008 85.632L100.673 83.824L98.4008 83.2L98.8488 81.856L101.025 82.688L100.913 80.352H102.321L102.209 82.672L104.401 81.856L104.833 83.2L102.577 83.808L104.049 85.632L102.897 86.464L101.617 84.512L100.337 86.464L99.2008 85.632ZM115.295 85.632L116.767 83.824L114.495 83.2L114.943 81.856L117.119 82.688L117.007 80.352H118.415L118.303 82.672L120.495 81.856L120.927 83.2L118.671 83.808L120.143 85.632L118.991 86.464L117.711 84.512L116.431 86.464L115.295 85.632ZM122.607 85.632L124.079 83.824L121.807 83.2L122.255 81.856L124.431 82.688L124.319 80.352H125.727L125.615 82.672L127.807 81.856L128.239 83.2L125.983 83.808L127.455 85.632L126.303 86.464L125.023 84.512L123.743 86.464L122.607 85.632ZM129.92 85.632L131.392 83.824L129.12 83.2L129.568 81.856L131.744 82.688L131.632 80.352H133.04L132.928 82.672L135.12 81.856L135.552 83.2L133.296 83.808L134.768 85.632L133.616 86.464L132.336 84.512L131.056 86.464L129.92 85.632ZM137.232 85.632L138.704 83.824L136.432 83.2L136.88 81.856L139.056 82.688L138.944 80.352H140.352L140.24 82.672L142.432 81.856L142.864 83.2L140.608 83.808L142.08 85.632L140.928 86.464L139.648 84.512L138.368 86.464L137.232 85.632ZM158.654 86.144C159.326 86.3253 159.838 86.656 160.19 87.136C160.552 87.616 160.734 88.208 160.734 88.912C160.734 89.904 160.366 90.688 159.63 91.264C158.904 91.84 157.923 92.128 156.686 92.128C155.918 92.128 155.176 92.0107 154.462 91.776C153.758 91.5413 153.176 91.216 152.718 90.8L153.422 89.296C154.435 90.0853 155.496 90.48 156.606 90.48C157.331 90.48 157.87 90.336 158.222 90.048C158.584 89.76 158.766 89.3227 158.766 88.736C158.766 88.16 158.584 87.7387 158.222 87.472C157.859 87.1947 157.299 87.056 156.542 87.056H155.038V85.408H156.27C157.742 85.408 158.478 84.848 158.478 83.728C158.478 83.2053 158.318 82.8053 157.998 82.528C157.678 82.2507 157.23 82.112 156.654 82.112C155.63 82.112 154.606 82.5067 153.582 83.296L152.894 81.792C153.352 81.3867 153.928 81.0667 154.622 80.832C155.326 80.5867 156.046 80.464 156.782 80.464C157.902 80.464 158.792 80.7413 159.454 81.296C160.126 81.84 160.462 82.5707 160.462 83.488C160.451 84.1173 160.286 84.6667 159.966 85.136C159.656 85.5947 159.219 85.9307 158.654 86.144ZM166.488 92.144C165.133 92.144 164.098 91.648 163.384 90.656C162.68 89.6533 162.328 88.1973 162.328 86.288C162.328 84.4107 162.68 82.976 163.384 81.984C164.098 80.992 165.133 80.496 166.488 80.496C167.842 80.496 168.872 80.992 169.576 81.984C170.29 82.9653 170.648 84.4 170.648 86.288C170.648 88.1867 170.29 89.6373 169.576 90.64C168.872 91.6427 167.842 92.144 166.488 92.144ZM166.488 90.528C167.224 90.528 167.757 90.192 168.088 89.52C168.429 88.8373 168.6 87.76 168.6 86.288C168.6 84.8373 168.429 83.7813 168.088 83.12C167.757 82.448 167.224 82.112 166.488 82.112C165.752 82.112 165.213 82.448 164.872 83.12C164.541 83.7813 164.376 84.8373 164.376 86.288C164.376 87.76 164.541 88.8373 164.872 89.52C165.213 90.192 165.752 90.528 166.488 90.528ZM176.081 92.144C174.727 92.144 173.692 91.648 172.977 90.656C172.273 89.6533 171.921 88.1973 171.921 86.288C171.921 84.4107 172.273 82.976 172.977 81.984C173.692 80.992 174.727 80.496 176.081 80.496C177.436 80.496 178.465 80.992 179.169 81.984C179.884 82.9653 180.241 84.4 180.241 86.288C180.241 88.1867 179.884 89.6373 179.169 90.64C178.465 91.6427 177.436 92.144 176.081 92.144ZM176.081 90.528C176.817 90.528 177.351 90.192 177.681 89.52C178.023 88.8373 178.193 87.76 178.193 86.288C178.193 84.8373 178.023 83.7813 177.681 83.12C177.351 82.448 176.817 82.112 176.081 82.112C175.345 82.112 174.807 82.448 174.465 83.12C174.135 83.7813 173.969 84.8373 173.969 86.288C173.969 87.76 174.135 88.8373 174.465 89.52C174.807 90.192 175.345 90.528 176.081 90.528ZM189.659 90.32V92H182.011V90.48L185.883 86.304C186.342 85.8027 186.678 85.344 186.891 84.928C187.104 84.512 187.211 84.1013 187.211 83.696C187.211 83.1733 187.056 82.7787 186.747 82.512C186.448 82.2453 186.016 82.112 185.451 82.112C184.448 82.112 183.419 82.5067 182.363 83.296L181.675 81.792C182.123 81.3867 182.699 81.0667 183.403 80.832C184.107 80.5867 184.816 80.464 185.531 80.464C186.672 80.464 187.574 80.7467 188.235 81.312C188.907 81.8667 189.243 82.6187 189.243 83.568C189.243 84.2187 189.099 84.832 188.811 85.408C188.534 85.984 188.064 86.6293 187.403 87.344L184.603 90.32H189.659Z" fill="white"/>
<rect opacity="0.05" x="235" y="20" width="48" height="32" rx="4" fill="white"/>
<path d="M254.52 39.7132L256.115 30.7366H258.609L257.063 39.7132H254.52Z" fill="white"/>
<path d="M254.52 39.7132L256.564 30.7366H258.609L257.063 39.7132H254.52Z" fill="white"/>
<path d="M266.09 30.8363C265.591 30.6369 264.793 30.4374 263.796 30.4374C261.303 30.4374 259.507 31.6841 259.507 33.4795C259.507 34.8259 260.754 35.5241 261.751 35.973C262.749 36.4218 263.048 36.721 263.048 37.12C263.048 37.7184 262.25 38.0176 261.552 38.0176C260.555 38.0176 260.006 37.868 259.158 37.5189L258.809 37.3693L258.46 39.414C259.058 39.6634 260.156 39.9127 261.303 39.9127C263.946 39.9127 265.691 38.6659 265.691 36.7709C265.691 35.7236 265.043 34.9257 263.547 34.2774C262.649 33.8285 262.1 33.5792 262.1 33.1304C262.1 32.7314 262.549 32.3324 263.547 32.3324C264.395 32.3324 264.993 32.4821 265.442 32.6815L265.691 32.7813L266.09 30.8363Z" fill="white"/>
<path d="M266.09 30.8363C265.591 30.6369 264.793 30.4374 263.796 30.4374C261.303 30.4374 259.956 31.6841 259.956 33.4795C259.956 34.8259 260.754 35.5241 261.751 35.973C262.749 36.4218 263.048 36.721 263.048 37.12C263.048 37.7184 262.25 38.0176 261.552 38.0176C260.555 38.0176 260.006 37.868 259.158 37.5189L258.809 37.3693L258.46 39.414C259.058 39.6634 260.156 39.9127 261.303 39.9127C263.946 39.9127 265.691 38.6659 265.691 36.7709C265.691 35.7236 265.043 34.9257 263.547 34.2774C262.649 33.8285 262.1 33.5792 262.1 33.1304C262.1 32.7314 262.549 32.3324 263.547 32.3324C264.395 32.3324 264.993 32.4821 265.442 32.6815L265.691 32.7813L266.09 30.8363Z" fill="white"/>
<path fill-rule="evenodd" clip-rule="evenodd" d="M269.082 31.3849C269.331 30.7864 269.78 30.7366 270.379 30.7366H272.324L274.418 39.7132H272.024L271.725 38.2171H268.533L268.035 39.7132H265.342L269.082 31.3849ZM270.229 34.0779C270.229 34.0779 269.381 36.2722 269.232 36.721V36.7709H271.326C271.226 36.2722 270.728 34.028 270.728 34.028L270.578 33.1802C270.429 33.5293 270.229 34.0779 270.229 34.0779Z" fill="white"/>
<path fill-rule="evenodd" clip-rule="evenodd" d="M269.68 31.3849C269.93 30.7864 270.379 30.7366 270.977 30.7366H272.324L274.418 39.7132H272.024L271.725 38.2171H268.533L268.035 39.7132H265.342L269.68 31.3849ZM270.229 34.0779C270.229 34.0779 269.431 36.2223 269.232 36.721V36.7709H271.326C271.226 36.2722 270.728 34.028 270.728 34.028L270.578 33.1802C270.429 33.5293 270.229 34.0779 270.229 34.0779Z" fill="white"/>
<path d="M249.932 37.0203L249.682 35.7236C249.233 34.2275 247.787 32.5818 246.191 31.7839L248.436 39.7631H251.129L255.168 30.7865H252.475L249.932 37.0203Z" fill="white"/>
<path d="M249.932 37.0203L249.682 35.7236C249.233 34.2275 247.787 32.5818 246.191 31.7839L248.436 39.7631H251.129L255.168 30.7865H252.974L249.932 37.0203Z" fill="white"/>
<path d="M243 30.7366L243.449 30.8363C246.641 31.5844 248.835 33.4794 249.683 35.7236L248.785 31.4846C248.635 30.8862 248.186 30.7366 247.638 30.7366H243V30.7366Z" fill="white"/>
<path d="M243 30.7366C246.192 31.4846 248.835 33.4296 249.683 35.6737L248.835 32.1329C248.685 31.5345 248.186 31.1854 247.638 31.1854L243 30.7366Z" fill="white"/>
<path d="M243 30.7366C246.192 31.4846 248.835 33.4296 249.683 35.6737L249.084 33.7288C248.935 33.1303 248.735 32.5319 248.037 32.2825L243 30.7366Z" fill="white"/>
<path d="M252.425 36.721L250.73 35.0254L249.932 36.9205L249.732 35.6737C249.283 34.1776 247.837 32.5319 246.241 31.734L248.485 39.7132H251.178L252.425 36.721Z" fill="white"/>
<path d="M257.063 39.7132L254.918 37.5189L254.52 39.7132H257.063Z" fill="white"/>
<path d="M262.799 36.6213C262.998 36.8208 263.098 36.9704 263.048 37.1699C263.048 37.7684 262.25 38.0676 261.552 38.0676C260.555 38.0676 260.006 37.918 259.158 37.5689L258.809 37.4193L258.46 39.4639C259.058 39.7133 260.156 39.9626 261.303 39.9626C262.898 39.9626 264.195 39.5138 264.943 38.7159L262.799 36.6213Z" fill="white"/>
<path d="M265.69 39.7133H268.034L268.533 38.2172H271.725L272.024 39.7133H274.418L273.57 36.0728L270.578 33.1803L270.727 33.9782C270.727 33.9782 271.226 36.2224 271.326 36.7211H269.231C269.431 36.2224 270.229 34.078 270.229 34.078C270.229 34.078 270.428 33.5294 270.578 33.1803" fill="white"/>
<g clip-path="url(#clip0_1450_9998)">
<path d="M272.94 87.7C272.098 85.7639 270.708 84.116 268.943 82.9586C267.177 81.8011 265.111 81.1846 263 81.1846C260.889 81.1846 258.823 81.8011 257.057 82.9586C255.292 84.116 253.902 85.7639 253.06 87.7C253.02 87.795 253 87.897 253 88C253 88.103 253.02 88.2049 253.06 88.3C253.902 90.236 255.292 91.8839 257.057 93.0414C258.823 94.1988 260.889 94.8154 263 94.8154C265.111 94.8154 267.177 94.1988 268.943 93.0414C270.708 91.8839 272.098 90.236 272.94 88.3C272.98 88.2049 273 88.103 273 88C273 87.897 272.98 87.795 272.94 87.7ZM263 93.31C261.237 93.3096 259.51 92.8109 258.019 91.8713C256.527 90.9318 255.332 89.5897 254.57 88C255.332 86.4111 256.528 85.0699 258.02 84.1312C259.511 83.1925 261.238 82.6944 263 82.6944C264.762 82.6944 266.489 83.1925 267.98 84.1312C269.472 85.0699 270.668 86.4111 271.43 88C270.668 89.5897 269.473 90.9318 267.981 91.8713C266.49 92.8109 264.763 93.3096 263 93.31Z" fill="white"/>
<path d="M263 83.25C262.061 83.25 261.142 83.5286 260.361 84.0505C259.58 84.5725 258.971 85.3143 258.612 86.1823C258.252 87.0502 258.158 88.0053 258.341 88.9267C258.525 89.8481 258.977 90.6945 259.641 91.3588C260.306 92.0231 261.152 92.4754 262.073 92.6587C262.995 92.842 263.95 92.7479 264.818 92.3884C265.686 92.0289 266.428 91.4201 266.949 90.639C267.471 89.8578 267.75 88.9395 267.75 88C267.75 86.7402 267.25 85.532 266.359 84.6412C265.468 83.7504 264.26 83.25 263 83.25ZM263 91.25C262.357 91.25 261.729 91.0594 261.194 90.7023C260.66 90.3452 260.243 89.8376 259.997 89.2437C259.751 88.6499 259.687 87.9964 259.812 87.366C259.938 86.7355 260.247 86.1564 260.702 85.7019C261.156 85.2474 261.736 84.9378 262.366 84.8124C262.996 84.687 263.65 84.7514 264.244 84.9974C264.838 85.2434 265.345 85.6599 265.702 86.1944C266.059 86.7289 266.25 87.3572 266.25 88C266.247 88.8611 265.904 89.6863 265.295 90.2952C264.686 90.9041 263.861 91.2474 263 91.25Z" fill="white"/>
</g>
<defs>
<filter id="filter0_d_1450_9998" x="0" y="0" width="317" height="215.773" filterUnits="userSpaceOnUse" color-interpolation-filters="sRGB">
<feFlood flood-opacity="0" result="BackgroundImageFix"/>
<feColorMatrix in="SourceAlpha" type="matrix" values="0 0 0 0 0 0 0 0 0 0 0 0 0 0 0 0 0 0 127 0" result="hardAlpha"/>
<feOffset dx="2" dy="8"/>
<feGaussianBlur stdDeviation="8"/>
<feColorMatrix type="matrix" values="0 0 0 0 0.286275 0 0 0 0 0.501961 0 0 0 0 1 0 0 0 0.2 0"/>
<feBlend mode="normal" in2="BackgroundImageFix" result="effect1_dropShadow_1450_9998"/>
<feBlend mode="normal" in="SourceGraphic" in2="effect1_dropShadow_1450_9998" result="shape"/>
</filter>
<clipPath id="clip0_1450_9998">
<rect width="24" height="24" fill="white" transform="translate(251 76)"/>
</clipPath>
</defs>
</svg>
