<svg width="24" height="24" viewBox="0 0 24 24" fill="none" xmlns="http://www.w3.org/2000/svg">
<path fill-rule="evenodd" clip-rule="evenodd" d="M18.5306 6.89798H16.6939V5.67349C16.6916 4.4346 15.6879 3.43084 14.449 3.42859H9.55104C8.31215 3.43084 7.30839 4.4346 7.30614 5.67349V6.89798H5.4694C4.34229 6.89798 3.42859 7.81168 3.42859 8.93879V18.3265C3.42859 19.4537 4.34229 20.3674 5.4694 20.3674H18.5306C19.6577 20.3674 20.5714 19.4537 20.5714 18.3265V8.93879C20.5714 7.81168 19.6577 6.89798 18.5306 6.89798ZM9.34696 5.67349C9.34696 5.56078 9.43833 5.46941 9.55104 5.46941H14.449C14.5617 5.46941 14.6531 5.56078 14.6531 5.67349V6.89798H9.34696V5.67349ZM14.5714 17.5222V9.21079C14.5714 8.85769 14.9369 8.57145 15.3878 8.57145C15.8386 8.57145 16.2041 8.85769 16.2041 9.21079V17.5222C16.2041 17.8753 15.8386 18.1616 15.3878 18.1616C14.9369 18.1616 14.5714 17.8753 14.5714 17.5222ZM7.7143 17.5222V9.21079C7.7143 8.85769 8.07978 8.57145 8.53063 8.57145C8.98147 8.57145 9.34696 8.85769 9.34696 9.21079V17.5222C9.34696 17.8753 8.98147 18.1616 8.53063 18.1616C8.07978 18.1616 7.7143 17.8753 7.7143 17.5222Z" fill="#022541"/>
</svg>
